%TF.GenerationSoftware,KiCad,Pcbnew,(6.0.1)*%
%TF.CreationDate,2022-04-12T16:45:31-07:00*%
%TF.ProjectId,3208_board,33323038-5f62-46f6-9172-642e6b696361,rev?*%
%TF.SameCoordinates,Original*%
%TF.FileFunction,Legend,Top*%
%TF.FilePolarity,Positive*%
%FSLAX46Y46*%
G04 Gerber Fmt 4.6, Leading zero omitted, Abs format (unit mm)*
G04 Created by KiCad (PCBNEW (6.0.1)) date 2022-04-12 16:45:31*
%MOMM*%
%LPD*%
G01*
G04 APERTURE LIST*
%ADD10C,0.150000*%
%ADD11C,0.100000*%
%ADD12C,0.200000*%
%ADD13C,0.120000*%
G04 APERTURE END LIST*
D10*
X155352268Y-67945000D02*
X155321000Y-75565000D01*
X155382629Y-60325000D02*
X155352268Y-67945000D01*
X155321001Y-75565000D02*
G75*
G03*
X155321001Y-75565000I-1047269J0D01*
G01*
X155352269Y-67945000D02*
G75*
G03*
X155352269Y-67945000I-1047269J0D01*
G01*
X153543001Y-61086999D02*
G75*
G03*
X153543001Y-59563001I761999J761999D01*
G01*
D11*
X146185000Y-76951666D02*
X146518333Y-76951666D01*
X146118333Y-77151666D02*
X146351666Y-76451666D01*
X146585000Y-77151666D01*
X147151666Y-76451666D02*
X146818333Y-76451666D01*
X146785000Y-76785000D01*
X146818333Y-76751666D01*
X146885000Y-76718333D01*
X147051666Y-76718333D01*
X147118333Y-76751666D01*
X147151666Y-76785000D01*
X147185000Y-76851666D01*
X147185000Y-77018333D01*
X147151666Y-77085000D01*
X147118333Y-77118333D01*
X147051666Y-77151666D01*
X146885000Y-77151666D01*
X146818333Y-77118333D01*
X146785000Y-77085000D01*
X140133285Y-68339857D02*
X140219000Y-68368428D01*
X140361857Y-68368428D01*
X140419000Y-68339857D01*
X140447571Y-68311285D01*
X140476142Y-68254142D01*
X140476142Y-68197000D01*
X140447571Y-68139857D01*
X140419000Y-68111285D01*
X140361857Y-68082714D01*
X140247571Y-68054142D01*
X140190428Y-68025571D01*
X140161857Y-67997000D01*
X140133285Y-67939857D01*
X140133285Y-67882714D01*
X140161857Y-67825571D01*
X140190428Y-67797000D01*
X140247571Y-67768428D01*
X140390428Y-67768428D01*
X140476142Y-67797000D01*
X141076142Y-68311285D02*
X141047571Y-68339857D01*
X140961857Y-68368428D01*
X140904714Y-68368428D01*
X140819000Y-68339857D01*
X140761857Y-68282714D01*
X140733285Y-68225571D01*
X140704714Y-68111285D01*
X140704714Y-68025571D01*
X140733285Y-67911285D01*
X140761857Y-67854142D01*
X140819000Y-67797000D01*
X140904714Y-67768428D01*
X140961857Y-67768428D01*
X141047571Y-67797000D01*
X141076142Y-67825571D01*
X141333285Y-68368428D02*
X141333285Y-67768428D01*
X141676142Y-68368428D02*
X141419000Y-68025571D01*
X141676142Y-67768428D02*
X141333285Y-68111285D01*
X140419000Y-68734428D02*
X140304714Y-68734428D01*
X140247571Y-68763000D01*
X140219000Y-68791571D01*
X140161857Y-68877285D01*
X140133285Y-68991571D01*
X140133285Y-69220142D01*
X140161857Y-69277285D01*
X140190428Y-69305857D01*
X140247571Y-69334428D01*
X140361857Y-69334428D01*
X140419000Y-69305857D01*
X140447571Y-69277285D01*
X140476142Y-69220142D01*
X140476142Y-69077285D01*
X140447571Y-69020142D01*
X140419000Y-68991571D01*
X140361857Y-68963000D01*
X140247571Y-68963000D01*
X140190428Y-68991571D01*
X140161857Y-69020142D01*
X140133285Y-69077285D01*
X140101666Y-70101666D02*
X140568333Y-70101666D01*
X140268333Y-70801666D01*
X143844928Y-66432071D02*
X143559214Y-66632071D01*
X143844928Y-66774928D02*
X143244928Y-66774928D01*
X143244928Y-66546357D01*
X143273500Y-66489214D01*
X143302071Y-66460642D01*
X143359214Y-66432071D01*
X143444928Y-66432071D01*
X143502071Y-66460642D01*
X143530642Y-66489214D01*
X143559214Y-66546357D01*
X143559214Y-66774928D01*
X143816357Y-66203500D02*
X143844928Y-66117785D01*
X143844928Y-65974928D01*
X143816357Y-65917785D01*
X143787785Y-65889214D01*
X143730642Y-65860642D01*
X143673500Y-65860642D01*
X143616357Y-65889214D01*
X143587785Y-65917785D01*
X143559214Y-65974928D01*
X143530642Y-66089214D01*
X143502071Y-66146357D01*
X143473500Y-66174928D01*
X143416357Y-66203500D01*
X143359214Y-66203500D01*
X143302071Y-66174928D01*
X143273500Y-66146357D01*
X143244928Y-66089214D01*
X143244928Y-65946357D01*
X143273500Y-65860642D01*
X143244928Y-65689214D02*
X143244928Y-65346357D01*
X143844928Y-65517785D02*
X143244928Y-65517785D01*
X152735000Y-60782142D02*
X152706428Y-60839285D01*
X152706428Y-60925000D01*
X152735000Y-61010714D01*
X152792142Y-61067857D01*
X152849285Y-61096428D01*
X152963571Y-61125000D01*
X153049285Y-61125000D01*
X153163571Y-61096428D01*
X153220714Y-61067857D01*
X153277857Y-61010714D01*
X153306428Y-60925000D01*
X153306428Y-60867857D01*
X153277857Y-60782142D01*
X153249285Y-60753571D01*
X153049285Y-60753571D01*
X153049285Y-60867857D01*
X153306428Y-60496428D02*
X152706428Y-60496428D01*
X153306428Y-60153571D01*
X152706428Y-60153571D01*
X153306428Y-59867857D02*
X152706428Y-59867857D01*
X152706428Y-59725000D01*
X152735000Y-59639285D01*
X152792142Y-59582142D01*
X152849285Y-59553571D01*
X152963571Y-59525000D01*
X153049285Y-59525000D01*
X153163571Y-59553571D01*
X153220714Y-59582142D01*
X153277857Y-59639285D01*
X153306428Y-59725000D01*
X153306428Y-59867857D01*
X144011666Y-77151666D02*
X143611666Y-77151666D01*
X143811666Y-77151666D02*
X143811666Y-76451666D01*
X143745000Y-76551666D01*
X143678333Y-76618333D01*
X143611666Y-76651666D01*
X144611666Y-76451666D02*
X144478333Y-76451666D01*
X144411666Y-76485000D01*
X144378333Y-76518333D01*
X144311666Y-76618333D01*
X144278333Y-76751666D01*
X144278333Y-77018333D01*
X144311666Y-77085000D01*
X144345000Y-77118333D01*
X144411666Y-77151666D01*
X144545000Y-77151666D01*
X144611666Y-77118333D01*
X144645000Y-77085000D01*
X144678333Y-77018333D01*
X144678333Y-76851666D01*
X144645000Y-76785000D01*
X144611666Y-76751666D01*
X144545000Y-76718333D01*
X144411666Y-76718333D01*
X144345000Y-76751666D01*
X144311666Y-76785000D01*
X144278333Y-76851666D01*
X152524666Y-73891666D02*
X152524666Y-73491666D01*
X153224666Y-73691666D02*
X152524666Y-73691666D01*
X152524666Y-73325000D02*
X153224666Y-72858333D01*
X152524666Y-72858333D02*
X153224666Y-73325000D01*
X153224666Y-72225000D02*
X153224666Y-72625000D01*
X153224666Y-72425000D02*
X152524666Y-72425000D01*
X152624666Y-72491666D01*
X152691333Y-72558333D01*
X152724666Y-72625000D01*
X140455666Y-73786166D02*
X140055666Y-73786166D01*
X140255666Y-73786166D02*
X140255666Y-73086166D01*
X140189000Y-73186166D01*
X140122333Y-73252833D01*
X140055666Y-73286166D01*
X140722333Y-73152833D02*
X140755666Y-73119500D01*
X140822333Y-73086166D01*
X140989000Y-73086166D01*
X141055666Y-73119500D01*
X141089000Y-73152833D01*
X141122333Y-73219500D01*
X141122333Y-73286166D01*
X141089000Y-73386166D01*
X140689000Y-73786166D01*
X141122333Y-73786166D01*
X152706428Y-58442142D02*
X153306428Y-58242142D01*
X152706428Y-58042142D01*
X153306428Y-57842142D02*
X152706428Y-57842142D01*
X153306428Y-57556428D02*
X152706428Y-57556428D01*
X153306428Y-57213571D01*
X152706428Y-57213571D01*
X153224666Y-70935000D02*
X152891333Y-71168333D01*
X153224666Y-71335000D02*
X152524666Y-71335000D01*
X152524666Y-71068333D01*
X152558000Y-71001666D01*
X152591333Y-70968333D01*
X152658000Y-70935000D01*
X152758000Y-70935000D01*
X152824666Y-70968333D01*
X152858000Y-71001666D01*
X152891333Y-71068333D01*
X152891333Y-71335000D01*
X152524666Y-70701666D02*
X153224666Y-70235000D01*
X152524666Y-70235000D02*
X153224666Y-70701666D01*
X153224666Y-69601666D02*
X153224666Y-70001666D01*
X153224666Y-69801666D02*
X152524666Y-69801666D01*
X152624666Y-69868333D01*
X152691333Y-69935000D01*
X152724666Y-70001666D01*
X148725000Y-76951666D02*
X149058333Y-76951666D01*
X148658333Y-77151666D02*
X148891666Y-76451666D01*
X149125000Y-77151666D01*
X149658333Y-76451666D02*
X149525000Y-76451666D01*
X149458333Y-76485000D01*
X149425000Y-76518333D01*
X149358333Y-76618333D01*
X149325000Y-76751666D01*
X149325000Y-77018333D01*
X149358333Y-77085000D01*
X149391666Y-77118333D01*
X149458333Y-77151666D01*
X149591666Y-77151666D01*
X149658333Y-77118333D01*
X149691666Y-77085000D01*
X149725000Y-77018333D01*
X149725000Y-76851666D01*
X149691666Y-76785000D01*
X149658333Y-76751666D01*
X149591666Y-76718333D01*
X149458333Y-76718333D01*
X149391666Y-76751666D01*
X149358333Y-76785000D01*
X149325000Y-76851666D01*
X140011166Y-77088166D02*
X139611166Y-77088166D01*
X139811166Y-77088166D02*
X139811166Y-76388166D01*
X139744500Y-76488166D01*
X139677833Y-76554833D01*
X139611166Y-76588166D01*
X140244500Y-76388166D02*
X140677833Y-76388166D01*
X140444500Y-76654833D01*
X140544500Y-76654833D01*
X140611166Y-76688166D01*
X140644500Y-76721500D01*
X140677833Y-76788166D01*
X140677833Y-76954833D01*
X140644500Y-77021500D01*
X140611166Y-77054833D01*
X140544500Y-77088166D01*
X140344500Y-77088166D01*
X140277833Y-77054833D01*
X140244500Y-77021500D01*
X140135000Y-57468333D02*
X140168333Y-57435000D01*
X140235000Y-57401666D01*
X140401666Y-57401666D01*
X140468333Y-57435000D01*
X140501666Y-57468333D01*
X140535000Y-57535000D01*
X140535000Y-57601666D01*
X140501666Y-57701666D01*
X140101666Y-58101666D01*
X140535000Y-58101666D01*
D12*
%TO.C,R3*%
X141551269Y-75618731D02*
X142293731Y-74876269D01*
D13*
%TO.C,IC1*%
X147752000Y-62419000D02*
X147752000Y-62219000D01*
X147852000Y-62219000D02*
X147752000Y-62219000D01*
X147852000Y-62219000D02*
X148152000Y-62219000D01*
D12*
%TO.C,R1*%
X152417000Y-61404500D02*
X151367000Y-61404500D01*
D10*
%TO.C,U1*%
X146685000Y-76373524D02*
X146455190Y-76143714D01*
X146685000Y-66120476D02*
X146914810Y-66350286D01*
X151811524Y-71247000D02*
X151581714Y-71017190D01*
X141558476Y-71247000D02*
X141788286Y-71017190D01*
X146685000Y-66120476D02*
X146525901Y-66279575D01*
X146685000Y-76373524D02*
X146914810Y-76143714D01*
X146525901Y-66279575D02*
X145518274Y-65271948D01*
X151811524Y-71247000D02*
X151581714Y-71476810D01*
X141558476Y-71247000D02*
X141788286Y-71476810D01*
%TD*%
M02*
