%TF.GenerationSoftware,KiCad,Pcbnew,(6.0.1)*%
%TF.CreationDate,2022-04-12T16:45:31-07:00*%
%TF.ProjectId,3208_board,33323038-5f62-46f6-9172-642e6b696361,rev?*%
%TF.SameCoordinates,Original*%
%TF.FileFunction,Copper,L1,Top*%
%TF.FilePolarity,Positive*%
%FSLAX46Y46*%
G04 Gerber Fmt 4.6, Leading zero omitted, Abs format (unit mm)*
G04 Created by KiCad (PCBNEW (6.0.1)) date 2022-04-12 16:45:31*
%MOMM*%
%LPD*%
G01*
G04 APERTURE LIST*
G04 Aperture macros list*
%AMRotRect*
0 Rectangle, with rotation*
0 The origin of the aperture is its center*
0 $1 length*
0 $2 width*
0 $3 Rotation angle, in degrees counterclockwise*
0 Add horizontal line*
21,1,$1,$2,0,0,$3*%
G04 Aperture macros list end*
%TA.AperFunction,ComponentPad*%
%ADD10C,1.650000*%
%TD*%
%TA.AperFunction,SMDPad,CuDef*%
%ADD11RotRect,1.000000X1.450000X135.000000*%
%TD*%
%TA.AperFunction,SMDPad,CuDef*%
%ADD12R,0.750000X0.940000*%
%TD*%
%TA.AperFunction,SMDPad,CuDef*%
%ADD13R,0.850000X0.300000*%
%TD*%
%TA.AperFunction,SMDPad,CuDef*%
%ADD14R,0.610000X1.420000*%
%TD*%
%TA.AperFunction,SMDPad,CuDef*%
%ADD15R,0.950000X0.950000*%
%TD*%
%TA.AperFunction,SMDPad,CuDef*%
%ADD16R,1.450000X1.200000*%
%TD*%
%TA.AperFunction,SMDPad,CuDef*%
%ADD17R,0.940000X0.750000*%
%TD*%
%TA.AperFunction,SMDPad,CuDef*%
%ADD18R,1.050000X1.150000*%
%TD*%
%TA.AperFunction,SMDPad,CuDef*%
%ADD19R,1.450000X1.000000*%
%TD*%
%TA.AperFunction,SMDPad,CuDef*%
%ADD20RotRect,0.950000X0.950000X135.000000*%
%TD*%
%TA.AperFunction,SMDPad,CuDef*%
%ADD21RotRect,1.600000X0.550000X315.000000*%
%TD*%
%TA.AperFunction,SMDPad,CuDef*%
%ADD22RotRect,1.600000X0.550000X45.000000*%
%TD*%
%TA.AperFunction,ViaPad*%
%ADD23C,0.800000*%
%TD*%
%TA.AperFunction,Conductor*%
%ADD24C,0.250000*%
%TD*%
%TA.AperFunction,Conductor*%
%ADD25C,0.300000*%
%TD*%
%TA.AperFunction,Conductor*%
%ADD26C,0.600000*%
%TD*%
G04 APERTURE END LIST*
D10*
%TO.P,J2,1,1*%
%TO.N,/2*%
X139065000Y-57785000D03*
%TO.P,J2,2,2*%
%TO.N,/3{slash}SCL*%
X139065000Y-60325000D03*
%TO.P,J2,3,3*%
%TO.N,/4{slash}MOSI*%
X139065000Y-62865000D03*
%TO.P,J2,4,4*%
%TO.N,/5{slash}MISO*%
X139065000Y-65405000D03*
%TO.P,J2,5,5*%
%TO.N,/6{slash}SCK*%
X139065000Y-67945000D03*
%TO.P,J2,6,6*%
%TO.N,/7*%
X139065000Y-70485000D03*
%TO.P,J2,7,7*%
%TO.N,/12*%
X139065000Y-73025000D03*
%TO.P,J2,8,8*%
%TO.N,/13*%
X139065000Y-75565000D03*
%TO.P,J2,9,9*%
%TO.N,/14*%
X139065000Y-78105000D03*
%TD*%
D11*
%TO.P,R3,1*%
%TO.N,Net-(LED1-Pad1)*%
X142594251Y-75919251D03*
%TO.P,R3,2*%
%TO.N,/LED_GND*%
X141250749Y-74575749D03*
%TD*%
D12*
%TO.P,C3,1*%
%TO.N,Net-(C3-Pad1)*%
X151703000Y-64770000D03*
%TO.P,C3,2*%
%TO.N,Net-(C3-Pad2)*%
X150303000Y-64770000D03*
%TD*%
D13*
%TO.P,IC1,1,GND_1*%
%TO.N,GND*%
X148402000Y-62619000D03*
%TO.P,IC1,2,VIN*%
%TO.N,/VIN*%
X148402000Y-63119000D03*
%TO.P,IC1,3,VOUT*%
%TO.N,/VCC*%
X148402000Y-63619000D03*
%TO.P,IC1,4,C+*%
%TO.N,Net-(C3-Pad2)*%
X150302000Y-63619000D03*
%TO.P,IC1,5,C-*%
%TO.N,Net-(C3-Pad1)*%
X150302000Y-63119000D03*
%TO.P,IC1,6,~{SHDN}*%
%TO.N,/VIN*%
X150302000Y-62619000D03*
D14*
%TO.P,IC1,7,GND_2*%
%TO.N,GND*%
X149352000Y-63119000D03*
%TD*%
D15*
%TO.P,LED2,1*%
%TO.N,Net-(LED2-Pad1)*%
X151892000Y-58916000D03*
%TO.P,LED2,2*%
%TO.N,/VCC*%
X151892000Y-57416000D03*
%TD*%
D10*
%TO.P,J1,1,1*%
%TO.N,/VIN*%
X154305000Y-57785000D03*
%TO.P,J1,2,2*%
%TO.N,GND*%
X154305000Y-60325000D03*
%TO.P,J1,3,3*%
%TO.N,/RX0*%
X154305000Y-62865000D03*
%TO.P,J1,4,4*%
%TO.N,/TX0*%
X154305000Y-65405000D03*
%TO.P,J1,5,5*%
%TO.N,GND*%
X154305000Y-67945000D03*
%TO.P,J1,6,6*%
%TO.N,/RX1*%
X154305000Y-70485000D03*
%TO.P,J1,7,7*%
%TO.N,/TX1*%
X154305000Y-73025000D03*
%TO.P,J1,8,8*%
%TO.N,GND*%
X154305000Y-75565000D03*
%TO.P,J1,9,9*%
%TO.N,/10{slash}SDA*%
X154305000Y-78105000D03*
%TD*%
D16*
%TO.P,L1,1*%
%TO.N,/VCC*%
X141605000Y-61810000D03*
%TO.P,L1,2*%
%TO.N,/AVCC*%
X141605000Y-60110000D03*
%TD*%
D17*
%TO.P,C5,1*%
%TO.N,/AVCC*%
X141859000Y-58739000D03*
%TO.P,C5,2*%
%TO.N,GND*%
X141859000Y-57339000D03*
%TD*%
D18*
%TO.P,S1,1,COM_1*%
%TO.N,Net-(R2-Pad2)*%
X142330000Y-63476000D03*
%TO.P,S1,2,NO_1*%
%TO.N,GND*%
X140880000Y-63476000D03*
%TO.P,S1,3,COM_2*%
%TO.N,Net-(R2-Pad2)*%
X142330000Y-66826000D03*
%TO.P,S1,4,NO_2*%
%TO.N,GND*%
X140880000Y-66826000D03*
%TD*%
D10*
%TO.P,J3,1,1*%
%TO.N,/11{slash}SCL*%
X151765000Y-78105000D03*
%TO.P,J3,2,2*%
%TO.N,/A6*%
X149225000Y-78105000D03*
%TO.P,J3,3,3*%
%TO.N,/A5*%
X146685000Y-78105000D03*
%TO.P,J3,4,4*%
%TO.N,/16*%
X144145000Y-78105000D03*
%TO.P,J3,5,5*%
%TO.N,/15*%
X141605000Y-78105000D03*
%TD*%
D19*
%TO.P,R1,1*%
%TO.N,Net-(LED2-Pad1)*%
X151892000Y-60454500D03*
%TO.P,R1,2*%
%TO.N,/LED_GND*%
X151892000Y-62354500D03*
%TD*%
D20*
%TO.P,LED1,1*%
%TO.N,Net-(LED1-Pad1)*%
X150726670Y-75587330D03*
%TO.P,LED1,2*%
%TO.N,/LED*%
X151787330Y-74526670D03*
%TD*%
D10*
%TO.P,J4,1,1*%
%TO.N,/UDPI*%
X149352000Y-60325000D03*
%TO.P,J4,2,2*%
%TO.N,/VIN*%
X149352000Y-57785000D03*
%TO.P,J4,3,3*%
%TO.N,unconnected-(J4-Pad3)*%
X146812000Y-60325000D03*
%TO.P,J4,4,4*%
%TO.N,/TX0*%
X146812000Y-57785000D03*
%TO.P,J4,5,5*%
%TO.N,/RX0*%
X144272000Y-60325000D03*
%TO.P,J4,6,6*%
%TO.N,GND*%
X144272000Y-57785000D03*
%TD*%
D17*
%TO.P,C2,1*%
%TO.N,/VCC*%
X145669000Y-62419000D03*
%TO.P,C2,2*%
%TO.N,GND*%
X145669000Y-63819000D03*
%TD*%
%TO.P,C1,1*%
%TO.N,/VIN*%
X147066000Y-62419000D03*
%TO.P,C1,2*%
%TO.N,GND*%
X147066000Y-63819000D03*
%TD*%
D19*
%TO.P,R2,1*%
%TO.N,/RST*%
X143995000Y-64513500D03*
%TO.P,R2,2*%
%TO.N,Net-(R2-Pad2)*%
X143995000Y-62613500D03*
%TD*%
D21*
%TO.P,U1,1,PA3*%
%TO.N,/3{slash}SCL*%
X145659695Y-66261897D03*
%TO.P,U1,2,PA4*%
%TO.N,/4{slash}MOSI*%
X145094010Y-66827583D03*
%TO.P,U1,3,PA5*%
%TO.N,/5{slash}MISO*%
X144528324Y-67393268D03*
%TO.P,U1,4,PA6*%
%TO.N,/6{slash}SCK*%
X143962639Y-67958953D03*
%TO.P,U1,5,PA7*%
%TO.N,/7*%
X143396953Y-68524639D03*
%TO.P,U1,6,PC0*%
%TO.N,/TX1*%
X142831268Y-69090324D03*
%TO.P,U1,7,PC1*%
%TO.N,/RX1*%
X142265583Y-69656010D03*
%TO.P,U1,8,PC2*%
%TO.N,/10{slash}SDA*%
X141699897Y-70221695D03*
D22*
%TO.P,U1,9,PC3*%
%TO.N,/11{slash}SCL*%
X141699897Y-72272305D03*
%TO.P,U1,10,PD0*%
%TO.N,/12*%
X142265583Y-72837990D03*
%TO.P,U1,11,PD1*%
%TO.N,/13*%
X142831268Y-73403676D03*
%TO.P,U1,12,PD2*%
%TO.N,/14*%
X143396953Y-73969361D03*
%TO.P,U1,13,PD3*%
%TO.N,/15*%
X143962639Y-74535047D03*
%TO.P,U1,14,PD4*%
%TO.N,/16*%
X144528324Y-75100732D03*
%TO.P,U1,15,PD5*%
%TO.N,/A5*%
X145094010Y-75666417D03*
%TO.P,U1,16,PD6*%
%TO.N,/A6*%
X145659695Y-76232103D03*
D21*
%TO.P,U1,17,PD7*%
%TO.N,unconnected-(U1-Pad17)*%
X147710305Y-76232103D03*
%TO.P,U1,18,AVDD*%
%TO.N,/AVCC*%
X148275990Y-75666417D03*
%TO.P,U1,19,GND*%
%TO.N,GND*%
X148841676Y-75100732D03*
%TO.P,U1,20,PF0/TOSC1*%
%TO.N,unconnected-(U1-Pad20)*%
X149407361Y-74535047D03*
%TO.P,U1,21,PF1/TOSC2*%
%TO.N,unconnected-(U1-Pad21)*%
X149973047Y-73969361D03*
%TO.P,U1,22,PF2*%
%TO.N,unconnected-(U1-Pad22)*%
X150538732Y-73403676D03*
%TO.P,U1,23,PF3*%
%TO.N,unconnected-(U1-Pad23)*%
X151104417Y-72837990D03*
%TO.P,U1,24,PF4*%
%TO.N,unconnected-(U1-Pad24)*%
X151670103Y-72272305D03*
D22*
%TO.P,U1,25,PF5*%
%TO.N,/LED*%
X151670103Y-70221695D03*
%TO.P,U1,26,PF6/~{RESET}*%
%TO.N,/RST*%
X151104417Y-69656010D03*
%TO.P,U1,27,UPDI*%
%TO.N,/UDPI*%
X150538732Y-69090324D03*
%TO.P,U1,28,VDD*%
%TO.N,/VCC*%
X149973047Y-68524639D03*
%TO.P,U1,29,GND*%
%TO.N,GND*%
X149407361Y-67958953D03*
%TO.P,U1,30,EXTCLK/PA0*%
%TO.N,/TX0*%
X148841676Y-67393268D03*
%TO.P,U1,31,PA1*%
%TO.N,/RX0*%
X148275990Y-66827583D03*
%TO.P,U1,32,PA2*%
%TO.N,/2*%
X147710305Y-66261897D03*
%TD*%
D23*
%TO.N,/RST*%
X150334067Y-70426360D03*
X144081500Y-65214500D03*
%TO.N,/UDPI*%
X151175980Y-66800010D03*
%TO.N,/3{slash}SCL*%
X145297773Y-65331727D03*
%TO.N,/4{slash}MOSI*%
X142670498Y-64650502D03*
%TO.N,/5{slash}MISO*%
X142238970Y-65552050D03*
%TO.N,/VIN*%
X148137531Y-61760785D03*
%TO.N,GND*%
X146682104Y-75275319D03*
X153543000Y-74295000D03*
X147447000Y-69342000D03*
X139827000Y-59055000D03*
X138416500Y-69215000D03*
X146939000Y-65659000D03*
X145542000Y-57086500D03*
X153543000Y-69215000D03*
X149225000Y-64770000D03*
%TO.N,/VCC*%
X145669000Y-61849000D03*
X151638000Y-67691000D03*
X151892000Y-57841498D03*
X148399500Y-64008000D03*
%TO.N,/AVCC*%
X141177801Y-58763989D03*
X148526500Y-70158909D03*
%TO.N,/6{slash}SCK*%
X144732989Y-68729304D03*
%TO.N,/TX1*%
X145215497Y-70991877D03*
%TO.N,/RX1*%
X144508734Y-70285129D03*
%TO.N,/10{slash}SDA*%
X145514574Y-71956989D03*
%TO.N,/11{slash}SCL*%
X142455638Y-71506381D03*
%TO.N,/TX0*%
X149632000Y-66613835D03*
X150304500Y-59055000D03*
%TO.N,/2*%
X147650000Y-64833500D03*
X142938500Y-59055000D03*
%TO.N,/13*%
X143576869Y-72230881D03*
%TO.N,/14*%
X141103559Y-76145413D03*
%TO.N,/15*%
X144415393Y-73008608D03*
%TO.N,/LED_GND*%
X151892000Y-62992000D03*
X145415000Y-73406000D03*
X142875000Y-77406500D03*
X147782803Y-68313588D03*
%TO.N,Net-(LED1-Pad1)*%
X143065500Y-76390500D03*
X150494999Y-77459783D03*
%TD*%
D24*
%TO.N,/TX1*%
X144208631Y-69560618D02*
X144808837Y-69560618D01*
X142831268Y-69090324D02*
X143350243Y-69609299D01*
X143350243Y-69609299D02*
X144159950Y-69609299D01*
X144159950Y-69609299D02*
X144208631Y-69560618D01*
X145233245Y-70974129D02*
X145215497Y-70991877D01*
X144808837Y-69560618D02*
X145233245Y-69985026D01*
X145233245Y-69985026D02*
X145233245Y-70974129D01*
%TO.N,Net-(C3-Pad1)*%
X150939500Y-63119000D02*
X151703000Y-63882500D01*
X150302000Y-63119000D02*
X150939500Y-63119000D01*
X151703000Y-63882500D02*
X151703000Y-64579500D01*
%TO.N,/RST*%
X143995000Y-64513500D02*
X143995000Y-65128000D01*
X144079000Y-64513500D02*
X144399000Y-64833500D01*
X143995000Y-64513500D02*
X144079000Y-64513500D01*
X143955973Y-64616027D02*
X143995000Y-64577000D01*
X143995000Y-65128000D02*
X144081500Y-65214500D01*
X143995000Y-64577000D02*
X143431000Y-64577000D01*
%TO.N,/LED*%
X152754763Y-71306355D02*
X152754763Y-73559237D01*
X152754763Y-73559237D02*
X151787330Y-74526670D01*
X151670103Y-70221695D02*
X152754763Y-71306355D01*
%TO.N,/UDPI*%
X151964150Y-68571350D02*
X151057706Y-68571350D01*
X151057706Y-68571350D02*
X150538732Y-69090324D01*
X152463500Y-67119500D02*
X152463500Y-68072000D01*
X151175980Y-66800010D02*
X152144010Y-66800010D01*
X152144010Y-66800010D02*
X152463500Y-67119500D01*
X152463500Y-68072000D02*
X151964150Y-68571350D01*
%TO.N,/3{slash}SCL*%
X145297773Y-65899975D02*
X145659695Y-66261897D01*
X145297773Y-65331727D02*
X145297773Y-65899975D01*
%TO.N,/4{slash}MOSI*%
X144291514Y-66308608D02*
X144810489Y-66827583D01*
X142670498Y-64899724D02*
X144079382Y-66308608D01*
X144810489Y-66827583D02*
X145094010Y-66827583D01*
X142670498Y-64650502D02*
X142670498Y-64899724D01*
X144079382Y-66308608D02*
X144291514Y-66308608D01*
%TO.N,/5{slash}MISO*%
X144528324Y-67393252D02*
X144528324Y-67393268D01*
X142613409Y-65926489D02*
X143061545Y-65926489D01*
X142238970Y-65552050D02*
X142613409Y-65926489D01*
X143061545Y-65926489D02*
X144528324Y-67393268D01*
D25*
%TO.N,/VIN*%
X148137531Y-61760785D02*
X147724215Y-61760785D01*
X147766000Y-63119000D02*
X147066000Y-62419000D01*
D24*
X148137531Y-61760785D02*
X148300777Y-61924031D01*
D25*
X147724215Y-61760785D02*
X147066000Y-62419000D01*
X148402000Y-63119000D02*
X147766000Y-63119000D01*
D24*
X149681031Y-61924031D02*
X150302000Y-62545000D01*
X148300777Y-61924031D02*
X149681031Y-61924031D01*
X150302000Y-62545000D02*
X150302000Y-62619000D01*
D26*
%TO.N,GND*%
X140697011Y-62909511D02*
X140633511Y-62909511D01*
X140389511Y-62665511D02*
X140389511Y-63254989D01*
D25*
X148402000Y-62619000D02*
X149176022Y-62619000D01*
D26*
X140880000Y-63092500D02*
X140697011Y-62909511D01*
X140880000Y-63476000D02*
X140880000Y-63092500D01*
X140389511Y-63254989D02*
X140335000Y-63309500D01*
D25*
X149176022Y-62619000D02*
X149352000Y-62794978D01*
D26*
X140501500Y-63476000D02*
X140880000Y-63476000D01*
X140335000Y-63309500D02*
X140501500Y-63476000D01*
D25*
X149352000Y-62794978D02*
X149352000Y-63119000D01*
D26*
X140633511Y-62909511D02*
X140389511Y-62665511D01*
D25*
%TO.N,/VCC*%
X145669000Y-61849000D02*
X145669000Y-62419000D01*
X148402000Y-63619000D02*
X148402000Y-64005500D01*
X145013989Y-61763989D02*
X145669000Y-62419000D01*
X142966500Y-61763989D02*
X141964489Y-61763989D01*
X151638000Y-67691000D02*
X150806686Y-67691000D01*
X150806686Y-67691000D02*
X149973047Y-68524639D01*
X142966500Y-61763989D02*
X145013989Y-61763989D01*
X148402000Y-64005500D02*
X148399500Y-64008000D01*
%TO.N,/AVCC*%
X147632016Y-73538484D02*
X147632016Y-75022443D01*
X148526500Y-72644000D02*
X147632016Y-73538484D01*
X147632016Y-75022443D02*
X148275990Y-75666417D01*
X141859000Y-58739000D02*
X141859000Y-59856000D01*
X141177801Y-58763989D02*
X141202790Y-58739000D01*
X141202790Y-58739000D02*
X141859000Y-58739000D01*
X141859000Y-59856000D02*
X141605000Y-60110000D01*
X148526500Y-70158909D02*
X148526500Y-72644000D01*
D24*
%TO.N,Net-(C3-Pad2)*%
X150302000Y-64578500D02*
X150303000Y-64579500D01*
X150302000Y-63619000D02*
X150302000Y-64578500D01*
%TO.N,/6{slash}SCK*%
X144732989Y-68729304D02*
X143962639Y-67958953D01*
X144732989Y-68729304D02*
X144742560Y-68729304D01*
X144742560Y-68729304D02*
X144866558Y-68605306D01*
%TO.N,/7*%
X141544336Y-68005664D02*
X139065000Y-70485000D01*
X143396953Y-68524639D02*
X142877978Y-68005664D01*
X142877978Y-68005664D02*
X141544336Y-68005664D01*
%TO.N,/RX1*%
X142784557Y-70174984D02*
X142265583Y-69656010D01*
X144508734Y-70285129D02*
X144398589Y-70174984D01*
X144398589Y-70174984D02*
X142784557Y-70174984D01*
%TO.N,/10{slash}SDA*%
X145155995Y-71956989D02*
X145514574Y-71956989D01*
X143939676Y-70740670D02*
X145155995Y-71956989D01*
X154305000Y-78105000D02*
X153676170Y-78105000D01*
X142218872Y-70740670D02*
X143939676Y-70740670D01*
X145514574Y-71956989D02*
X145312585Y-71755000D01*
X142218872Y-70740670D02*
X141699897Y-70221695D01*
%TO.N,/11{slash}SCL*%
X142455638Y-71506381D02*
X141699897Y-72262122D01*
X141699897Y-72262122D02*
X141699897Y-72272305D01*
%TO.N,/TX0*%
X153634501Y-66075499D02*
X154305000Y-65405000D01*
X150142001Y-66075499D02*
X153634501Y-66075499D01*
X149632000Y-66613835D02*
X149632000Y-66585500D01*
X148082359Y-58991141D02*
X148146218Y-59055000D01*
X146876218Y-57785000D02*
X148082359Y-58991141D01*
X148146218Y-59055000D02*
X150304500Y-59055000D01*
X149632000Y-66613835D02*
X149621109Y-66613835D01*
X149632000Y-66585500D02*
X150142001Y-66075499D01*
X146812000Y-57785000D02*
X146876218Y-57785000D01*
X149621109Y-66613835D02*
X148841676Y-67393268D01*
%TO.N,/RX0*%
X148875856Y-61474511D02*
X152914511Y-61474511D01*
X154305000Y-63754000D02*
X152433021Y-65625979D01*
X148082000Y-59626500D02*
X148082000Y-60680655D01*
X148082000Y-60680655D02*
X148875856Y-61474511D01*
X149477594Y-65625979D02*
X148275990Y-66827583D01*
X147574000Y-59118500D02*
X148082000Y-59626500D01*
X152914511Y-61474511D02*
X154305000Y-62865000D01*
X154305000Y-62865000D02*
X154305000Y-63754000D01*
X152433021Y-65625979D02*
X149477594Y-65625979D01*
X145478500Y-59118500D02*
X147574000Y-59118500D01*
X144272000Y-60325000D02*
X145478500Y-59118500D01*
%TO.N,/2*%
X140208000Y-58039000D02*
X139319000Y-58039000D01*
X142653511Y-58039489D02*
X140208489Y-58039489D01*
X147650000Y-64833500D02*
X147710305Y-64893805D01*
X139319000Y-58039000D02*
X139065000Y-57785000D01*
X142938500Y-59055000D02*
X142938500Y-58324478D01*
X140208489Y-58039489D02*
X140208000Y-58039000D01*
X147710305Y-64893805D02*
X147710305Y-66261897D01*
X142938500Y-58324478D02*
X142653511Y-58039489D01*
%TO.N,/12*%
X139396965Y-73356965D02*
X139065000Y-73025000D01*
X141746608Y-73356965D02*
X139396965Y-73356965D01*
X142265583Y-72837990D02*
X141746608Y-73356965D01*
%TO.N,/13*%
X143576869Y-72230881D02*
X143576869Y-72658075D01*
X143576869Y-72658075D02*
X142831268Y-73403676D01*
%TO.N,/14*%
X143137139Y-73969361D02*
X143396953Y-73969361D01*
X141103559Y-76002941D02*
X143137139Y-73969361D01*
X139065000Y-77470000D02*
X139065000Y-78105000D01*
X141103559Y-76145413D02*
X141103559Y-76002941D01*
X143396953Y-73969361D02*
X143314593Y-73969361D01*
X143396953Y-73969361D02*
X143200639Y-73969361D01*
%TO.N,/15*%
X144481613Y-73074828D02*
X144481613Y-74016073D01*
X144481613Y-74016073D02*
X143962639Y-74535047D01*
X144415393Y-73008608D02*
X144481613Y-73074828D01*
%TO.N,/16*%
X143637000Y-77597000D02*
X144145000Y-78105000D01*
X144009350Y-77969350D02*
X144145000Y-78105000D01*
X144009350Y-75619706D02*
X144009350Y-77969350D01*
X144528324Y-75100732D02*
X144009350Y-75619706D01*
%TO.N,/A6*%
X146862455Y-76232103D02*
X148735352Y-78105000D01*
X145659695Y-76232103D02*
X146862455Y-76232103D01*
X148735352Y-78105000D02*
X149225000Y-78105000D01*
%TO.N,/A5*%
X144575035Y-76757035D02*
X145923000Y-78105000D01*
X145094010Y-75666417D02*
X144575035Y-76185392D01*
X144575035Y-76185392D02*
X144575035Y-76757035D01*
X145923000Y-78105000D02*
X146685000Y-78105000D01*
%TO.N,/LED_GND*%
X140379048Y-76561548D02*
X140379048Y-75447450D01*
X142875000Y-77406500D02*
X142597254Y-77406500D01*
X147332412Y-68313588D02*
X146516212Y-69129788D01*
X146516212Y-69129788D02*
X146516212Y-72304788D01*
X146516212Y-72304788D02*
X145415000Y-73406000D01*
X140687424Y-76869924D02*
X140379048Y-76561548D01*
X140379048Y-75447450D02*
X141250749Y-74575749D01*
X147782803Y-68313588D02*
X147332412Y-68313588D01*
X142597254Y-77406500D02*
X142060678Y-76869924D01*
X142060678Y-76869924D02*
X140687424Y-76869924D01*
%TO.N,Net-(LED1-Pad1)*%
X150726670Y-77228112D02*
X150726670Y-75587330D01*
X150726670Y-75587330D02*
X150780908Y-75533092D01*
X142594251Y-75919251D02*
X143065500Y-76390500D01*
X150494999Y-77459783D02*
X150726670Y-77228112D01*
%TO.N,Net-(LED2-Pad1)*%
X151892000Y-58916000D02*
X151892000Y-60454500D01*
%TO.N,Net-(R2-Pad2)*%
X141414500Y-64618500D02*
X141414500Y-65786718D01*
X143192500Y-62613500D02*
X142330000Y-63476000D01*
X142330000Y-63476000D02*
X142330000Y-63703000D01*
X142330000Y-63703000D02*
X141414500Y-64618500D01*
X142330000Y-66638000D02*
X142330000Y-66826000D01*
X142330000Y-66702218D02*
X142330000Y-66826000D01*
X141414500Y-65786718D02*
X142330000Y-66702218D01*
X143995000Y-62613500D02*
X143192500Y-62613500D01*
%TD*%
%TA.AperFunction,Conductor*%
%TO.N,GND*%
G36*
X155349107Y-65905648D02*
G01*
X155374383Y-65961368D01*
X155375000Y-65972404D01*
X155375000Y-67376910D01*
X155356093Y-67435101D01*
X155306593Y-67471065D01*
X155245407Y-67471065D01*
X155208363Y-67444151D01*
X155206269Y-67446319D01*
X155186572Y-67427298D01*
X155176854Y-67432356D01*
X154675296Y-67933914D01*
X154669242Y-67945797D01*
X154670038Y-67950828D01*
X155175857Y-68456647D01*
X155186712Y-68462178D01*
X155204625Y-68445060D01*
X155206669Y-68447199D01*
X155235099Y-68421236D01*
X155295902Y-68414413D01*
X155349104Y-68444633D01*
X155374383Y-68500352D01*
X155375000Y-68511392D01*
X155375000Y-69915844D01*
X155356093Y-69974035D01*
X155306593Y-70009999D01*
X155245407Y-70009999D01*
X155195907Y-69974035D01*
X155188588Y-69962322D01*
X155165567Y-69919025D01*
X155165565Y-69919021D01*
X155163294Y-69914751D01*
X155115434Y-69856068D01*
X155039247Y-69762654D01*
X155039246Y-69762653D01*
X155036186Y-69758901D01*
X154890433Y-69638324D01*
X154884954Y-69633791D01*
X154884952Y-69633790D01*
X154881227Y-69630708D01*
X154704320Y-69535055D01*
X154639856Y-69515100D01*
X154516824Y-69477015D01*
X154516820Y-69477014D01*
X154512203Y-69475585D01*
X154507395Y-69475080D01*
X154507392Y-69475079D01*
X154317010Y-69455069D01*
X154317008Y-69455069D01*
X154312194Y-69454563D01*
X154245547Y-69460628D01*
X154116731Y-69472351D01*
X154116727Y-69472352D01*
X154111911Y-69472790D01*
X154107269Y-69474156D01*
X154107265Y-69474157D01*
X153923629Y-69528204D01*
X153923626Y-69528205D01*
X153918982Y-69529572D01*
X153908494Y-69535055D01*
X153745054Y-69620499D01*
X153745050Y-69620502D01*
X153740757Y-69622746D01*
X153736981Y-69625782D01*
X153736978Y-69625784D01*
X153587796Y-69745730D01*
X153584024Y-69748763D01*
X153580915Y-69752468D01*
X153580912Y-69752471D01*
X153457869Y-69899108D01*
X153454752Y-69902823D01*
X153452416Y-69907071D01*
X153452416Y-69907072D01*
X153447594Y-69915844D01*
X153357866Y-70079058D01*
X153356403Y-70083671D01*
X153356401Y-70083675D01*
X153352189Y-70096953D01*
X153297056Y-70270755D01*
X153296516Y-70275569D01*
X153276305Y-70455755D01*
X153274638Y-70470613D01*
X153275616Y-70482261D01*
X153289440Y-70646875D01*
X153291467Y-70671018D01*
X153346901Y-70864338D01*
X153438828Y-71043210D01*
X153441839Y-71047009D01*
X153560738Y-71197022D01*
X153560741Y-71197025D01*
X153563748Y-71200819D01*
X153567435Y-71203957D01*
X153567437Y-71203959D01*
X153609792Y-71240006D01*
X153716901Y-71331163D01*
X153721123Y-71333523D01*
X153721128Y-71333526D01*
X153795181Y-71374912D01*
X153892456Y-71429277D01*
X153995886Y-71462884D01*
X154079118Y-71489928D01*
X154079121Y-71489929D01*
X154083723Y-71491424D01*
X154283420Y-71515236D01*
X154288242Y-71514865D01*
X154288245Y-71514865D01*
X154354574Y-71509761D01*
X154483938Y-71499807D01*
X154677640Y-71445724D01*
X154681953Y-71443545D01*
X154681959Y-71443543D01*
X154852828Y-71357231D01*
X154852830Y-71357229D01*
X154857149Y-71355048D01*
X154895933Y-71324747D01*
X155011812Y-71234213D01*
X155011814Y-71234211D01*
X155015627Y-71231232D01*
X155018783Y-71227576D01*
X155018788Y-71227571D01*
X155127623Y-71101483D01*
X155147037Y-71078992D01*
X155149432Y-71074777D01*
X155189920Y-71003504D01*
X155235103Y-70962246D01*
X155295907Y-70955426D01*
X155349107Y-70985648D01*
X155374383Y-71041368D01*
X155375000Y-71052404D01*
X155375000Y-72455844D01*
X155356093Y-72514035D01*
X155306593Y-72549999D01*
X155245407Y-72549999D01*
X155195907Y-72514035D01*
X155188588Y-72502322D01*
X155165567Y-72459025D01*
X155165565Y-72459021D01*
X155163294Y-72454751D01*
X155139885Y-72426048D01*
X155039247Y-72302654D01*
X155039246Y-72302653D01*
X155036186Y-72298901D01*
X154920925Y-72203549D01*
X154884954Y-72173791D01*
X154884952Y-72173790D01*
X154881227Y-72170708D01*
X154704320Y-72075055D01*
X154642745Y-72055994D01*
X154516824Y-72017015D01*
X154516820Y-72017014D01*
X154512203Y-72015585D01*
X154507395Y-72015080D01*
X154507392Y-72015079D01*
X154317010Y-71995069D01*
X154317008Y-71995069D01*
X154312194Y-71994563D01*
X154245547Y-72000628D01*
X154116731Y-72012351D01*
X154116727Y-72012352D01*
X154111911Y-72012790D01*
X154107269Y-72014156D01*
X154107265Y-72014157D01*
X153923629Y-72068204D01*
X153923626Y-72068205D01*
X153918982Y-72069572D01*
X153908494Y-72075055D01*
X153745054Y-72160499D01*
X153745050Y-72160502D01*
X153740757Y-72162746D01*
X153736981Y-72165782D01*
X153736978Y-72165784D01*
X153620009Y-72259830D01*
X153584024Y-72288763D01*
X153580915Y-72292468D01*
X153580912Y-72292471D01*
X153487519Y-72403773D01*
X153454752Y-72442823D01*
X153452416Y-72447071D01*
X153452416Y-72447072D01*
X153447594Y-72455844D01*
X153357866Y-72619058D01*
X153356403Y-72623671D01*
X153356401Y-72623675D01*
X153336011Y-72687953D01*
X153297056Y-72810755D01*
X153296516Y-72815569D01*
X153277646Y-72983796D01*
X153264337Y-73013135D01*
X153277916Y-73049648D01*
X153289550Y-73188184D01*
X153291467Y-73211018D01*
X153292800Y-73215666D01*
X153292800Y-73215667D01*
X153297079Y-73230589D01*
X153346901Y-73404338D01*
X153438828Y-73583210D01*
X153441839Y-73587009D01*
X153560738Y-73737022D01*
X153560741Y-73737025D01*
X153563748Y-73740819D01*
X153567435Y-73743957D01*
X153567437Y-73743959D01*
X153630900Y-73797970D01*
X153716901Y-73871163D01*
X153721123Y-73873523D01*
X153721128Y-73873526D01*
X153759638Y-73895048D01*
X153892456Y-73969277D01*
X153995886Y-74002884D01*
X154079118Y-74029928D01*
X154079121Y-74029929D01*
X154083723Y-74031424D01*
X154283420Y-74055236D01*
X154288242Y-74054865D01*
X154288245Y-74054865D01*
X154354574Y-74049761D01*
X154483938Y-74039807D01*
X154677640Y-73985724D01*
X154681953Y-73983545D01*
X154681959Y-73983543D01*
X154852828Y-73897231D01*
X154852830Y-73897229D01*
X154857149Y-73895048D01*
X154860966Y-73892066D01*
X155011812Y-73774213D01*
X155011814Y-73774211D01*
X155015627Y-73771232D01*
X155018783Y-73767576D01*
X155018788Y-73767571D01*
X155108399Y-73663754D01*
X155147037Y-73618992D01*
X155189920Y-73543504D01*
X155235103Y-73502246D01*
X155295907Y-73495426D01*
X155349107Y-73525648D01*
X155374383Y-73581368D01*
X155375000Y-73592404D01*
X155375000Y-74996910D01*
X155356093Y-75055101D01*
X155306593Y-75091065D01*
X155245407Y-75091065D01*
X155208363Y-75064151D01*
X155206269Y-75066319D01*
X155186572Y-75047298D01*
X155176854Y-75052356D01*
X154675296Y-75553914D01*
X154669242Y-75565797D01*
X154670038Y-75570828D01*
X155175857Y-76076647D01*
X155186712Y-76082178D01*
X155204625Y-76065060D01*
X155206669Y-76067199D01*
X155235099Y-76041236D01*
X155295902Y-76034413D01*
X155349104Y-76064633D01*
X155374383Y-76120352D01*
X155375000Y-76131392D01*
X155375000Y-77535844D01*
X155356093Y-77594035D01*
X155306593Y-77629999D01*
X155245407Y-77629999D01*
X155195907Y-77594035D01*
X155188588Y-77582322D01*
X155165567Y-77539025D01*
X155165565Y-77539021D01*
X155163294Y-77534751D01*
X155100968Y-77458331D01*
X155039247Y-77382654D01*
X155039246Y-77382653D01*
X155036186Y-77378901D01*
X154888022Y-77256329D01*
X154884954Y-77253791D01*
X154884952Y-77253790D01*
X154881227Y-77250708D01*
X154756752Y-77183405D01*
X154708574Y-77157355D01*
X154708573Y-77157355D01*
X154704320Y-77155055D01*
X154634122Y-77133325D01*
X154516824Y-77097015D01*
X154516820Y-77097014D01*
X154512203Y-77095585D01*
X154507395Y-77095080D01*
X154507392Y-77095079D01*
X154317010Y-77075069D01*
X154317008Y-77075069D01*
X154312194Y-77074563D01*
X154245547Y-77080628D01*
X154116731Y-77092351D01*
X154116727Y-77092352D01*
X154111911Y-77092790D01*
X154107269Y-77094156D01*
X154107265Y-77094157D01*
X153923629Y-77148204D01*
X153923626Y-77148205D01*
X153918982Y-77149572D01*
X153908494Y-77155055D01*
X153745054Y-77240499D01*
X153745050Y-77240502D01*
X153740757Y-77242746D01*
X153736981Y-77245782D01*
X153736978Y-77245784D01*
X153588511Y-77365155D01*
X153584024Y-77368763D01*
X153580917Y-77372466D01*
X153580912Y-77372471D01*
X153563683Y-77393004D01*
X153454752Y-77522823D01*
X153452416Y-77527071D01*
X153452416Y-77527072D01*
X153447594Y-77535844D01*
X153357866Y-77699058D01*
X153356403Y-77703671D01*
X153356401Y-77703675D01*
X153352189Y-77716953D01*
X153297056Y-77890755D01*
X153296516Y-77895569D01*
X153275178Y-78085803D01*
X153274638Y-78090613D01*
X153291467Y-78291018D01*
X153346901Y-78484338D01*
X153438828Y-78663210D01*
X153441839Y-78667009D01*
X153560738Y-78817022D01*
X153560741Y-78817025D01*
X153563748Y-78820819D01*
X153567435Y-78823957D01*
X153567437Y-78823959D01*
X153658867Y-78901772D01*
X153716901Y-78951163D01*
X153721123Y-78953523D01*
X153721128Y-78953526D01*
X153785642Y-78989581D01*
X153827214Y-79034474D01*
X153834459Y-79095229D01*
X153804609Y-79148639D01*
X153749066Y-79174304D01*
X153737344Y-79175000D01*
X152336870Y-79175000D01*
X152278679Y-79156093D01*
X152242715Y-79106593D01*
X152242715Y-79045407D01*
X152278679Y-78995907D01*
X152292233Y-78987634D01*
X152312828Y-78977231D01*
X152312830Y-78977229D01*
X152317149Y-78975048D01*
X152381633Y-78924668D01*
X152471812Y-78854213D01*
X152471814Y-78854211D01*
X152475627Y-78851232D01*
X152478783Y-78847576D01*
X152478788Y-78847571D01*
X152591303Y-78717220D01*
X152607037Y-78698992D01*
X152706374Y-78524127D01*
X152751664Y-78387979D01*
X152768327Y-78337888D01*
X152768327Y-78337886D01*
X152769854Y-78333297D01*
X152795060Y-78133772D01*
X152795462Y-78105000D01*
X152784338Y-77991544D01*
X152776309Y-77909659D01*
X152776308Y-77909655D01*
X152775837Y-77904849D01*
X152717710Y-77712321D01*
X152664157Y-77611603D01*
X152625567Y-77539025D01*
X152625565Y-77539021D01*
X152623294Y-77534751D01*
X152560968Y-77458331D01*
X152499247Y-77382654D01*
X152499246Y-77382653D01*
X152496186Y-77378901D01*
X152348022Y-77256329D01*
X152344954Y-77253791D01*
X152344952Y-77253790D01*
X152341227Y-77250708D01*
X152216752Y-77183405D01*
X152168574Y-77157355D01*
X152168573Y-77157355D01*
X152164320Y-77155055D01*
X152094122Y-77133325D01*
X151976824Y-77097015D01*
X151976820Y-77097014D01*
X151972203Y-77095585D01*
X151967395Y-77095080D01*
X151967392Y-77095079D01*
X151777010Y-77075069D01*
X151777008Y-77075069D01*
X151772194Y-77074563D01*
X151705547Y-77080628D01*
X151576731Y-77092351D01*
X151576727Y-77092352D01*
X151571911Y-77092790D01*
X151567269Y-77094156D01*
X151567265Y-77094157D01*
X151383629Y-77148204D01*
X151383626Y-77148205D01*
X151378982Y-77149572D01*
X151200757Y-77242746D01*
X151200206Y-77241692D01*
X151146335Y-77256329D01*
X151089137Y-77234602D01*
X151055634Y-77183405D01*
X151052170Y-77157447D01*
X151052170Y-76446721D01*
X153787761Y-76446721D01*
X153794990Y-76454233D01*
X153888433Y-76506456D01*
X153897255Y-76510311D01*
X154079226Y-76569437D01*
X154088639Y-76571506D01*
X154278628Y-76594161D01*
X154288255Y-76594363D01*
X154479023Y-76579684D01*
X154488514Y-76578011D01*
X154672798Y-76526557D01*
X154681777Y-76523075D01*
X154815332Y-76455611D01*
X154823373Y-76447626D01*
X154818181Y-76437391D01*
X154316086Y-75935296D01*
X154304203Y-75929242D01*
X154299172Y-75930038D01*
X153793238Y-76435972D01*
X153787761Y-76446721D01*
X151052170Y-76446721D01*
X151052170Y-76258139D01*
X151071077Y-76199948D01*
X151081166Y-76188135D01*
X151554160Y-75715141D01*
X151587288Y-75665561D01*
X151602849Y-75587330D01*
X151596506Y-75555440D01*
X153275545Y-75555440D01*
X153291556Y-75746108D01*
X153293294Y-75755576D01*
X153346031Y-75939496D01*
X153349582Y-75948464D01*
X153414635Y-76075043D01*
X153422762Y-76083114D01*
X153432826Y-76077964D01*
X153934704Y-75576086D01*
X153940758Y-75564203D01*
X153939962Y-75559172D01*
X153433875Y-75053085D01*
X153423233Y-75047663D01*
X153415619Y-75055042D01*
X153360660Y-75155012D01*
X153356862Y-75163873D01*
X153299012Y-75346242D01*
X153297007Y-75355673D01*
X153275679Y-75545812D01*
X153275545Y-75555440D01*
X151596506Y-75555440D01*
X151595546Y-75550613D01*
X151589190Y-75518659D01*
X151589189Y-75518657D01*
X151587288Y-75509099D01*
X151588352Y-75508887D01*
X151584303Y-75457459D01*
X151616271Y-75405289D01*
X151672799Y-75381873D01*
X151709034Y-75387613D01*
X151709099Y-75387288D01*
X151718657Y-75389189D01*
X151718659Y-75389190D01*
X151777768Y-75400947D01*
X151787330Y-75402849D01*
X151796892Y-75400947D01*
X151855999Y-75389190D01*
X151865561Y-75387288D01*
X151915141Y-75354160D01*
X152586186Y-74683115D01*
X153787110Y-74683115D01*
X153792214Y-74693004D01*
X154293914Y-75194704D01*
X154305797Y-75200758D01*
X154310828Y-75199962D01*
X154817105Y-74693685D01*
X154822472Y-74683151D01*
X154814943Y-74675436D01*
X154708390Y-74617823D01*
X154699500Y-74614086D01*
X154516724Y-74557508D01*
X154507290Y-74555571D01*
X154317006Y-74535571D01*
X154307368Y-74535504D01*
X154116825Y-74552844D01*
X154107361Y-74554650D01*
X153923817Y-74608670D01*
X153914876Y-74612283D01*
X153795214Y-74674841D01*
X153787110Y-74683115D01*
X152586186Y-74683115D01*
X152614820Y-74654481D01*
X152647948Y-74604901D01*
X152663509Y-74526670D01*
X152647948Y-74448439D01*
X152614820Y-74398859D01*
X152565147Y-74349186D01*
X152537370Y-74294669D01*
X152546941Y-74234237D01*
X152565142Y-74209185D01*
X152971825Y-73802501D01*
X152978181Y-73796678D01*
X153001320Y-73777262D01*
X153001323Y-73777259D01*
X153007957Y-73771692D01*
X153027392Y-73738029D01*
X153032031Y-73730748D01*
X153043765Y-73713990D01*
X153054317Y-73698921D01*
X153056559Y-73690553D01*
X153059025Y-73685266D01*
X153061021Y-73679781D01*
X153065351Y-73672282D01*
X153068457Y-73654670D01*
X153072097Y-73634021D01*
X153073967Y-73625586D01*
X153081785Y-73596411D01*
X153084027Y-73588044D01*
X153080640Y-73549328D01*
X153080263Y-73540700D01*
X153080263Y-73057932D01*
X153092674Y-73019734D01*
X153080263Y-72972760D01*
X153080263Y-71324889D01*
X153080640Y-71316260D01*
X153083272Y-71286177D01*
X153084027Y-71277548D01*
X153073967Y-71240005D01*
X153072097Y-71231571D01*
X153066855Y-71201838D01*
X153066854Y-71201836D01*
X153065351Y-71193310D01*
X153061021Y-71185811D01*
X153059025Y-71180326D01*
X153056559Y-71175039D01*
X153054317Y-71166671D01*
X153032031Y-71134844D01*
X153027390Y-71127560D01*
X153007957Y-71093900D01*
X152978192Y-71068924D01*
X152971824Y-71063090D01*
X152306499Y-70397765D01*
X152278722Y-70343248D01*
X152288293Y-70282816D01*
X152306494Y-70257764D01*
X152585982Y-69978275D01*
X152588681Y-69974236D01*
X152588684Y-69974232D01*
X152613694Y-69936800D01*
X152619110Y-69928695D01*
X152621034Y-69919025D01*
X152632768Y-69860027D01*
X152634670Y-69850464D01*
X152619110Y-69772232D01*
X152605906Y-69752471D01*
X152588682Y-69726693D01*
X152588679Y-69726690D01*
X152585982Y-69722653D01*
X152169145Y-69305816D01*
X152165108Y-69303119D01*
X152165105Y-69303116D01*
X152127673Y-69278105D01*
X152119566Y-69272688D01*
X152110003Y-69270786D01*
X152109226Y-69270464D01*
X152062700Y-69230728D01*
X152055647Y-69216885D01*
X152055326Y-69216110D01*
X152053424Y-69206547D01*
X152023349Y-69161537D01*
X152022996Y-69161008D01*
X152022993Y-69161005D01*
X152020296Y-69156968D01*
X151931101Y-69067773D01*
X151903324Y-69013256D01*
X151912895Y-68952824D01*
X151956160Y-68909559D01*
X151988666Y-68900239D01*
X151992957Y-68900614D01*
X152030500Y-68890554D01*
X152038934Y-68888684D01*
X152068667Y-68883442D01*
X152068669Y-68883441D01*
X152077195Y-68881938D01*
X152084694Y-68877608D01*
X152090179Y-68875612D01*
X152095466Y-68873146D01*
X152103834Y-68870904D01*
X152135661Y-68848618D01*
X152142945Y-68843977D01*
X152153083Y-68838124D01*
X152172834Y-68826721D01*
X153787761Y-68826721D01*
X153794990Y-68834233D01*
X153888433Y-68886456D01*
X153897255Y-68890311D01*
X154079226Y-68949437D01*
X154088639Y-68951506D01*
X154278628Y-68974161D01*
X154288255Y-68974363D01*
X154479023Y-68959684D01*
X154488514Y-68958011D01*
X154672798Y-68906557D01*
X154681777Y-68903075D01*
X154815332Y-68835611D01*
X154823373Y-68827626D01*
X154818181Y-68817391D01*
X154316086Y-68315296D01*
X154304203Y-68309242D01*
X154299172Y-68310038D01*
X153793238Y-68815972D01*
X153787761Y-68826721D01*
X152172834Y-68826721D01*
X152176605Y-68824544D01*
X152201581Y-68794779D01*
X152207415Y-68788411D01*
X152680557Y-68315269D01*
X152686925Y-68309434D01*
X152696950Y-68301022D01*
X152716694Y-68284455D01*
X152736129Y-68250792D01*
X152740768Y-68243511D01*
X152742487Y-68241056D01*
X152763054Y-68211684D01*
X152765296Y-68203317D01*
X152767759Y-68198036D01*
X152769757Y-68192546D01*
X152774088Y-68185045D01*
X152780836Y-68146778D01*
X152782705Y-68138349D01*
X152790523Y-68109170D01*
X152792764Y-68100806D01*
X152789377Y-68062090D01*
X152789000Y-68053462D01*
X152789000Y-67935440D01*
X153275545Y-67935440D01*
X153291556Y-68126108D01*
X153293294Y-68135576D01*
X153346031Y-68319496D01*
X153349582Y-68328464D01*
X153414635Y-68455043D01*
X153422762Y-68463114D01*
X153432826Y-68457964D01*
X153934704Y-67956086D01*
X153940758Y-67944203D01*
X153939962Y-67939172D01*
X153433875Y-67433085D01*
X153423233Y-67427663D01*
X153415619Y-67435042D01*
X153360660Y-67535012D01*
X153356862Y-67543873D01*
X153299012Y-67726242D01*
X153297007Y-67735673D01*
X153275679Y-67925812D01*
X153275545Y-67935440D01*
X152789000Y-67935440D01*
X152789000Y-67138034D01*
X152789377Y-67129405D01*
X152792009Y-67099322D01*
X152792764Y-67090693D01*
X152785374Y-67063115D01*
X153787110Y-67063115D01*
X153792214Y-67073004D01*
X154293914Y-67574704D01*
X154305797Y-67580758D01*
X154310828Y-67579962D01*
X154817105Y-67073685D01*
X154822472Y-67063151D01*
X154814943Y-67055436D01*
X154708390Y-66997823D01*
X154699500Y-66994086D01*
X154516724Y-66937508D01*
X154507290Y-66935571D01*
X154317006Y-66915571D01*
X154307368Y-66915504D01*
X154116825Y-66932844D01*
X154107361Y-66934650D01*
X153923817Y-66988670D01*
X153914876Y-66992283D01*
X153795214Y-67054841D01*
X153787110Y-67063115D01*
X152785374Y-67063115D01*
X152782704Y-67053150D01*
X152780834Y-67044716D01*
X152775592Y-67014983D01*
X152775591Y-67014981D01*
X152774088Y-67006455D01*
X152769758Y-66998956D01*
X152767762Y-66993471D01*
X152765296Y-66988184D01*
X152763054Y-66979816D01*
X152740768Y-66947989D01*
X152736127Y-66940705D01*
X152732347Y-66934157D01*
X152716694Y-66907045D01*
X152686929Y-66882069D01*
X152680561Y-66876235D01*
X152387279Y-66582953D01*
X152381444Y-66576584D01*
X152370578Y-66563634D01*
X152347658Y-66506903D01*
X152362461Y-66447536D01*
X152409332Y-66408207D01*
X152446417Y-66400999D01*
X153615967Y-66400999D01*
X153624596Y-66401376D01*
X153663308Y-66404763D01*
X153700851Y-66394703D01*
X153709285Y-66392833D01*
X153739018Y-66387591D01*
X153739020Y-66387590D01*
X153747546Y-66386087D01*
X153755045Y-66381757D01*
X153760530Y-66379761D01*
X153765819Y-66377295D01*
X153774185Y-66375053D01*
X153797239Y-66358910D01*
X153855747Y-66341021D01*
X153891718Y-66348865D01*
X153892456Y-66349277D01*
X153897054Y-66350771D01*
X154079118Y-66409928D01*
X154079121Y-66409929D01*
X154083723Y-66411424D01*
X154283420Y-66435236D01*
X154288242Y-66434865D01*
X154288245Y-66434865D01*
X154354574Y-66429761D01*
X154483938Y-66419807D01*
X154677640Y-66365724D01*
X154681953Y-66363545D01*
X154681959Y-66363543D01*
X154852828Y-66277231D01*
X154852830Y-66277229D01*
X154857149Y-66275048D01*
X154906924Y-66236160D01*
X155011812Y-66154213D01*
X155011814Y-66154211D01*
X155015627Y-66151232D01*
X155018783Y-66147576D01*
X155018788Y-66147571D01*
X155137378Y-66010182D01*
X155147037Y-65998992D01*
X155149432Y-65994777D01*
X155189920Y-65923504D01*
X155235103Y-65882246D01*
X155295907Y-65875426D01*
X155349107Y-65905648D01*
G37*
%TD.AperFunction*%
%TA.AperFunction,Conductor*%
G36*
X150601306Y-66419906D02*
G01*
X150637270Y-66469406D01*
X150637270Y-66530592D01*
X150634580Y-66537882D01*
X150590936Y-66643248D01*
X150570298Y-66800010D01*
X150590936Y-66956772D01*
X150651444Y-67102851D01*
X150655395Y-67108000D01*
X150729899Y-67205096D01*
X150750323Y-67262772D01*
X150732945Y-67321437D01*
X150690826Y-67353408D01*
X150691584Y-67354812D01*
X150691583Y-67354812D01*
X150649545Y-67377495D01*
X150645419Y-67379597D01*
X150602360Y-67400273D01*
X150598412Y-67403592D01*
X150596907Y-67405097D01*
X150595616Y-67406281D01*
X150594588Y-67407148D01*
X150588892Y-67410222D01*
X150583341Y-67416227D01*
X150583336Y-67416231D01*
X150554877Y-67447018D01*
X150552183Y-67449821D01*
X150495839Y-67506165D01*
X150441322Y-67533942D01*
X150380890Y-67524371D01*
X150343519Y-67491161D01*
X150325556Y-67464277D01*
X150319413Y-67456791D01*
X150305159Y-67442537D01*
X150293276Y-67436483D01*
X150288245Y-67437279D01*
X148890945Y-68834579D01*
X148884891Y-68846462D01*
X148885687Y-68851493D01*
X148905199Y-68871005D01*
X148912681Y-68877145D01*
X148949989Y-68902073D01*
X148967962Y-68909518D01*
X149014488Y-68949254D01*
X149021542Y-68963098D01*
X149022137Y-68964535D01*
X149024040Y-68974102D01*
X149029459Y-68982212D01*
X149054468Y-69019641D01*
X149054471Y-69019644D01*
X149057168Y-69023681D01*
X149474005Y-69440518D01*
X149478042Y-69443215D01*
X149478045Y-69443218D01*
X149514439Y-69467535D01*
X149523584Y-69473646D01*
X149533144Y-69475548D01*
X149533925Y-69475871D01*
X149580450Y-69515609D01*
X149587500Y-69529446D01*
X149587823Y-69530227D01*
X149589725Y-69539787D01*
X149595142Y-69547894D01*
X149620153Y-69585326D01*
X149620156Y-69585329D01*
X149622853Y-69589366D01*
X149899271Y-69865784D01*
X149927048Y-69920301D01*
X149917477Y-69980733D01*
X149905199Y-69997628D01*
X149905785Y-69998078D01*
X149809531Y-70123519D01*
X149749023Y-70269598D01*
X149728385Y-70426360D01*
X149749023Y-70583122D01*
X149809531Y-70729201D01*
X149905785Y-70854642D01*
X150031226Y-70950896D01*
X150177305Y-71011404D01*
X150334067Y-71032042D01*
X150490829Y-71011404D01*
X150636908Y-70950896D01*
X150762349Y-70854642D01*
X150763772Y-70856497D01*
X150809177Y-70833376D01*
X150869607Y-70842962D01*
X150894644Y-70861157D01*
X151171061Y-71137574D01*
X151175098Y-71140271D01*
X151175101Y-71140274D01*
X151211635Y-71164685D01*
X151249514Y-71212735D01*
X151251916Y-71273873D01*
X151217923Y-71324747D01*
X151211635Y-71329315D01*
X151175101Y-71353726D01*
X151175098Y-71353729D01*
X151171061Y-71356426D01*
X150754224Y-71773263D01*
X150751527Y-71777300D01*
X150751524Y-71777303D01*
X150745278Y-71786651D01*
X150721096Y-71822842D01*
X150719194Y-71832405D01*
X150718873Y-71833180D01*
X150679137Y-71879706D01*
X150665294Y-71886759D01*
X150664517Y-71887081D01*
X150654954Y-71888983D01*
X150646847Y-71894400D01*
X150609415Y-71919411D01*
X150609412Y-71919414D01*
X150605375Y-71922111D01*
X150188538Y-72338948D01*
X150185841Y-72342985D01*
X150185838Y-72342988D01*
X150171275Y-72364783D01*
X150155410Y-72388527D01*
X150153508Y-72398090D01*
X150153186Y-72398867D01*
X150113450Y-72445393D01*
X150099607Y-72452446D01*
X150098832Y-72452767D01*
X150089269Y-72454669D01*
X150081162Y-72460086D01*
X150043730Y-72485097D01*
X150043727Y-72485100D01*
X150039690Y-72487797D01*
X149622853Y-72904634D01*
X149620156Y-72908671D01*
X149620153Y-72908674D01*
X149608747Y-72925745D01*
X149589725Y-72954213D01*
X149587823Y-72963773D01*
X149587500Y-72964554D01*
X149547762Y-73011079D01*
X149533925Y-73018129D01*
X149533144Y-73018452D01*
X149523584Y-73020354D01*
X149515477Y-73025771D01*
X149478045Y-73050782D01*
X149478042Y-73050785D01*
X149474005Y-73053482D01*
X149057168Y-73470319D01*
X149054471Y-73474356D01*
X149054468Y-73474359D01*
X149052443Y-73477390D01*
X149024040Y-73519898D01*
X149022138Y-73529463D01*
X149021816Y-73530239D01*
X148982078Y-73576764D01*
X148968239Y-73583816D01*
X148967463Y-73584138D01*
X148957898Y-73586040D01*
X148949788Y-73591459D01*
X148912359Y-73616468D01*
X148912356Y-73616471D01*
X148908319Y-73619168D01*
X148491482Y-74036005D01*
X148488785Y-74040042D01*
X148488782Y-74040045D01*
X148479015Y-74054663D01*
X148458354Y-74085584D01*
X148456451Y-74095151D01*
X148455856Y-74096588D01*
X148416120Y-74143115D01*
X148402275Y-74150169D01*
X148384301Y-74157614D01*
X148346996Y-74182540D01*
X148339514Y-74188680D01*
X148325260Y-74202934D01*
X148319206Y-74214817D01*
X148320002Y-74219848D01*
X149717302Y-75617148D01*
X149729185Y-75623202D01*
X149757847Y-75618663D01*
X149758017Y-75619736D01*
X149780017Y-75612587D01*
X149838208Y-75631494D01*
X149865406Y-75665993D01*
X149866052Y-75665561D01*
X149899180Y-75715141D01*
X150372174Y-76188135D01*
X150399951Y-76242652D01*
X150401170Y-76258139D01*
X150401170Y-76782788D01*
X150382263Y-76840979D01*
X150337106Y-76872007D01*
X150338237Y-76874739D01*
X150192158Y-76935247D01*
X150066717Y-77031501D01*
X149970463Y-77156942D01*
X149963711Y-77173242D01*
X149949333Y-77207954D01*
X149909596Y-77254479D01*
X149850101Y-77268763D01*
X149803291Y-77252415D01*
X149801227Y-77250708D01*
X149792121Y-77245784D01*
X149628574Y-77157355D01*
X149628573Y-77157355D01*
X149624320Y-77155055D01*
X149554122Y-77133325D01*
X149436824Y-77097015D01*
X149436820Y-77097014D01*
X149432203Y-77095585D01*
X149427395Y-77095080D01*
X149427392Y-77095079D01*
X149237010Y-77075069D01*
X149237008Y-77075069D01*
X149232194Y-77074563D01*
X149165547Y-77080628D01*
X149036731Y-77092351D01*
X149036727Y-77092352D01*
X149031911Y-77092790D01*
X149027269Y-77094156D01*
X149027265Y-77094157D01*
X148843629Y-77148204D01*
X148843626Y-77148205D01*
X148838982Y-77149572D01*
X148828494Y-77155055D01*
X148665054Y-77240499D01*
X148665050Y-77240502D01*
X148660757Y-77242746D01*
X148656981Y-77245782D01*
X148656978Y-77245784D01*
X148548539Y-77332972D01*
X148491341Y-77354700D01*
X148432296Y-77338658D01*
X148416501Y-77325822D01*
X148294008Y-77203329D01*
X148266231Y-77148812D01*
X148275802Y-77088380D01*
X148294008Y-77063321D01*
X148626184Y-76731145D01*
X148628881Y-76727108D01*
X148628884Y-76727105D01*
X148653895Y-76689673D01*
X148659312Y-76681566D01*
X148661214Y-76672003D01*
X148661536Y-76671226D01*
X148701272Y-76624700D01*
X148715115Y-76617647D01*
X148715890Y-76617326D01*
X148725453Y-76615424D01*
X148750449Y-76598722D01*
X148770992Y-76584996D01*
X148770995Y-76584993D01*
X148775032Y-76582296D01*
X149191869Y-76165459D01*
X149194566Y-76161422D01*
X149194569Y-76161419D01*
X149219580Y-76123987D01*
X149224997Y-76115880D01*
X149226899Y-76106317D01*
X149227496Y-76104876D01*
X149267232Y-76058350D01*
X149281075Y-76051297D01*
X149299048Y-76043852D01*
X149336356Y-76018924D01*
X149343838Y-76012784D01*
X149358092Y-75998530D01*
X149364146Y-75986647D01*
X149363350Y-75981616D01*
X148011512Y-74629778D01*
X147983735Y-74575261D01*
X147982516Y-74559774D01*
X147982516Y-73724674D01*
X148001423Y-73666483D01*
X148011512Y-73654670D01*
X148740437Y-72925745D01*
X148756740Y-72912580D01*
X148758774Y-72911267D01*
X148758778Y-72911264D01*
X148765652Y-72906825D01*
X148785485Y-72881668D01*
X148789399Y-72877263D01*
X148789398Y-72877262D01*
X148792051Y-72874131D01*
X148794928Y-72871254D01*
X148805544Y-72856399D01*
X148808335Y-72852681D01*
X148808994Y-72851846D01*
X148837892Y-72815189D01*
X148840458Y-72807882D01*
X148841105Y-72806636D01*
X148845611Y-72800331D01*
X148859288Y-72754596D01*
X148860729Y-72750161D01*
X148874493Y-72710967D01*
X148874494Y-72710964D01*
X148876555Y-72705094D01*
X148877000Y-72699956D01*
X148877000Y-72697820D01*
X148877075Y-72696081D01*
X148877189Y-72694738D01*
X148879043Y-72688537D01*
X148878471Y-72673961D01*
X148877076Y-72638462D01*
X148877000Y-72634576D01*
X148877000Y-70695696D01*
X148895907Y-70637505D01*
X148915733Y-70617154D01*
X148949629Y-70591145D01*
X148954782Y-70587191D01*
X149051036Y-70461750D01*
X149111544Y-70315671D01*
X149132182Y-70158909D01*
X149111544Y-70002147D01*
X149051036Y-69856068D01*
X148954782Y-69730627D01*
X148829341Y-69634373D01*
X148683262Y-69573865D01*
X148526500Y-69553227D01*
X148369738Y-69573865D01*
X148223659Y-69634373D01*
X148098218Y-69730627D01*
X148001964Y-69856068D01*
X147941456Y-70002147D01*
X147920818Y-70158909D01*
X147941456Y-70315671D01*
X148001964Y-70461750D01*
X148098218Y-70587191D01*
X148103371Y-70591145D01*
X148137267Y-70617154D01*
X148171923Y-70667578D01*
X148176000Y-70695696D01*
X148176000Y-72457810D01*
X148157093Y-72516001D01*
X148147004Y-72527814D01*
X147418079Y-73256739D01*
X147401776Y-73269904D01*
X147399742Y-73271217D01*
X147399738Y-73271220D01*
X147392864Y-73275659D01*
X147373031Y-73300816D01*
X147369117Y-73305221D01*
X147369118Y-73305222D01*
X147366465Y-73308353D01*
X147363588Y-73311230D01*
X147352972Y-73326085D01*
X147350186Y-73329796D01*
X147320624Y-73367295D01*
X147318058Y-73374602D01*
X147317411Y-73375847D01*
X147312905Y-73382153D01*
X147310561Y-73389992D01*
X147299224Y-73427899D01*
X147297783Y-73432335D01*
X147285650Y-73466886D01*
X147281961Y-73477390D01*
X147281516Y-73482528D01*
X147281516Y-73484666D01*
X147281442Y-73486385D01*
X147281327Y-73487746D01*
X147279472Y-73493948D01*
X147279793Y-73502119D01*
X147281440Y-73544038D01*
X147281516Y-73547925D01*
X147281516Y-74974495D01*
X147279298Y-74995331D01*
X147277065Y-75005704D01*
X147278027Y-75013829D01*
X147280830Y-75037514D01*
X147281177Y-75043406D01*
X147281180Y-75043406D01*
X147281516Y-75047473D01*
X147281516Y-75051558D01*
X147282186Y-75055584D01*
X147282187Y-75055595D01*
X147284512Y-75069562D01*
X147285168Y-75074169D01*
X147290780Y-75121581D01*
X147294134Y-75128565D01*
X147294555Y-75129897D01*
X147295828Y-75137546D01*
X147302460Y-75149838D01*
X147313453Y-75210026D01*
X147286968Y-75265182D01*
X147260839Y-75283091D01*
X147260842Y-75283096D01*
X147252737Y-75288512D01*
X147252734Y-75288513D01*
X147215303Y-75313524D01*
X147215300Y-75313527D01*
X147211263Y-75316224D01*
X146794426Y-75733061D01*
X146791729Y-75737098D01*
X146791726Y-75737101D01*
X146767315Y-75773635D01*
X146719265Y-75811514D01*
X146658127Y-75813916D01*
X146607253Y-75779923D01*
X146602685Y-75773635D01*
X146578274Y-75737101D01*
X146578271Y-75737098D01*
X146575574Y-75733061D01*
X146158737Y-75316224D01*
X146154700Y-75313527D01*
X146154697Y-75313524D01*
X146117265Y-75288513D01*
X146109158Y-75283096D01*
X146099595Y-75281194D01*
X146098820Y-75280873D01*
X146052294Y-75241137D01*
X146045241Y-75227294D01*
X146044919Y-75226517D01*
X146043017Y-75216954D01*
X146026819Y-75192712D01*
X146012589Y-75171415D01*
X146012586Y-75171412D01*
X146009889Y-75167375D01*
X145593052Y-74750538D01*
X145589015Y-74747841D01*
X145589012Y-74747838D01*
X145551580Y-74722827D01*
X145543473Y-74717410D01*
X145533910Y-74715508D01*
X145533133Y-74715186D01*
X145486607Y-74675450D01*
X145479554Y-74661607D01*
X145479233Y-74660832D01*
X145477331Y-74651269D01*
X145454670Y-74617355D01*
X145446903Y-74605730D01*
X145446900Y-74605727D01*
X145444203Y-74601690D01*
X145027366Y-74184853D01*
X145023329Y-74182156D01*
X145023326Y-74182153D01*
X144985894Y-74157142D01*
X144977787Y-74151725D01*
X144968227Y-74149823D01*
X144967446Y-74149500D01*
X144920921Y-74109762D01*
X144913871Y-74095925D01*
X144913548Y-74095144D01*
X144911646Y-74085584D01*
X144890985Y-74054663D01*
X144881218Y-74040045D01*
X144881215Y-74040042D01*
X144878518Y-74036005D01*
X144836109Y-73993596D01*
X144808332Y-73939079D01*
X144807113Y-73923592D01*
X144807113Y-73891860D01*
X144826020Y-73833669D01*
X144875520Y-73797705D01*
X144936706Y-73797705D01*
X144976731Y-73825994D01*
X144978180Y-73824545D01*
X144982764Y-73829129D01*
X144986718Y-73834282D01*
X145112159Y-73930536D01*
X145258238Y-73991044D01*
X145415000Y-74011682D01*
X145571762Y-73991044D01*
X145717841Y-73930536D01*
X145843282Y-73834282D01*
X145939536Y-73708841D01*
X146000044Y-73562762D01*
X146020682Y-73406000D01*
X146010144Y-73325958D01*
X146021294Y-73265799D01*
X146038293Y-73243033D01*
X146733269Y-72548057D01*
X146739637Y-72542222D01*
X146739862Y-72542033D01*
X146769406Y-72517243D01*
X146788841Y-72483580D01*
X146793480Y-72476299D01*
X146798325Y-72469379D01*
X146815766Y-72444472D01*
X146818008Y-72436104D01*
X146820474Y-72430817D01*
X146822470Y-72425332D01*
X146826800Y-72417833D01*
X146828329Y-72409165D01*
X146832752Y-72384077D01*
X146833546Y-72379571D01*
X146835416Y-72371137D01*
X146843234Y-72341962D01*
X146845476Y-72333595D01*
X146842089Y-72294883D01*
X146841712Y-72286254D01*
X146841712Y-69305622D01*
X146860619Y-69247431D01*
X146870708Y-69235618D01*
X147298751Y-68807575D01*
X147353268Y-68779798D01*
X147413700Y-68789369D01*
X147429022Y-68799037D01*
X147479962Y-68838124D01*
X147500092Y-68846462D01*
X147603838Y-68889435D01*
X147626041Y-68898632D01*
X147782803Y-68919270D01*
X147939565Y-68898632D01*
X147961769Y-68889435D01*
X148065514Y-68846462D01*
X148085644Y-68838124D01*
X148211085Y-68741870D01*
X148307339Y-68616429D01*
X148339415Y-68538992D01*
X148351185Y-68510577D01*
X148390922Y-68464051D01*
X148450417Y-68449768D01*
X148495492Y-68468439D01*
X148495589Y-68468249D01*
X148498004Y-68469479D01*
X148506945Y-68473183D01*
X148508999Y-68475082D01*
X148521446Y-68481423D01*
X148526477Y-68480627D01*
X149808063Y-67199041D01*
X149840181Y-67177581D01*
X149901532Y-67152168D01*
X149934841Y-67138371D01*
X150060282Y-67042117D01*
X150156536Y-66916676D01*
X150217044Y-66770597D01*
X150237682Y-66613835D01*
X150232778Y-66576584D01*
X150224397Y-66512921D01*
X150235547Y-66452760D01*
X150279930Y-66410643D01*
X150322550Y-66400999D01*
X150543115Y-66400999D01*
X150601306Y-66419906D01*
G37*
%TD.AperFunction*%
%TA.AperFunction,Conductor*%
G36*
X140162986Y-63221813D02*
G01*
X140163243Y-63222000D01*
X141035000Y-63222000D01*
X141093191Y-63240907D01*
X141129155Y-63290407D01*
X141134000Y-63321000D01*
X141134000Y-64235320D01*
X141138122Y-64248007D01*
X141150241Y-64256812D01*
X141186205Y-64306312D01*
X141186204Y-64367497D01*
X141167909Y-64400504D01*
X141161306Y-64406045D01*
X141143849Y-64436282D01*
X141141873Y-64439705D01*
X141137232Y-64446989D01*
X141114946Y-64478816D01*
X141112704Y-64487184D01*
X141110238Y-64492471D01*
X141108242Y-64497956D01*
X141103912Y-64505455D01*
X141102409Y-64513981D01*
X141102408Y-64513983D01*
X141097166Y-64543716D01*
X141095296Y-64552150D01*
X141085236Y-64589693D01*
X141085991Y-64598322D01*
X141088623Y-64628405D01*
X141089000Y-64637034D01*
X141089000Y-65768184D01*
X141088623Y-65776813D01*
X141085236Y-65815525D01*
X141087478Y-65823892D01*
X141095296Y-65853067D01*
X141097166Y-65861501D01*
X141103912Y-65899763D01*
X141108242Y-65907262D01*
X141110238Y-65912747D01*
X141112704Y-65918035D01*
X141114946Y-65926402D01*
X141119915Y-65933498D01*
X141131159Y-65949556D01*
X141149049Y-66008068D01*
X141135727Y-66047886D01*
X141134000Y-66058789D01*
X141134000Y-67585320D01*
X141138122Y-67598005D01*
X141142243Y-67601000D01*
X141246674Y-67601000D01*
X141304865Y-67619907D01*
X141340829Y-67669407D01*
X141340829Y-67730593D01*
X141322511Y-67763637D01*
X141306904Y-67782236D01*
X141301071Y-67788603D01*
X139574574Y-69515100D01*
X139520057Y-69542877D01*
X139466884Y-69536442D01*
X139464320Y-69535055D01*
X139399856Y-69515100D01*
X139276824Y-69477015D01*
X139276820Y-69477014D01*
X139272203Y-69475585D01*
X139267395Y-69475080D01*
X139267392Y-69475079D01*
X139077010Y-69455069D01*
X139077008Y-69455069D01*
X139072194Y-69454563D01*
X139005547Y-69460628D01*
X138876731Y-69472351D01*
X138876727Y-69472352D01*
X138871911Y-69472790D01*
X138867269Y-69474156D01*
X138867265Y-69474157D01*
X138683629Y-69528204D01*
X138683626Y-69528205D01*
X138678982Y-69529572D01*
X138668494Y-69535055D01*
X138505054Y-69620499D01*
X138505050Y-69620502D01*
X138500757Y-69622746D01*
X138496981Y-69625782D01*
X138496978Y-69625784D01*
X138347796Y-69745730D01*
X138344024Y-69748763D01*
X138340915Y-69752468D01*
X138340912Y-69752471D01*
X138217869Y-69899108D01*
X138214752Y-69902823D01*
X138212416Y-69907071D01*
X138212416Y-69907072D01*
X138180754Y-69964665D01*
X138136152Y-70006549D01*
X138075449Y-70014217D01*
X138021832Y-69984741D01*
X137995781Y-69929379D01*
X137995000Y-69916971D01*
X137995000Y-68515819D01*
X138013907Y-68457628D01*
X138063407Y-68421664D01*
X138124593Y-68421664D01*
X138174093Y-68457628D01*
X138182051Y-68470566D01*
X138198828Y-68503210D01*
X138201839Y-68507009D01*
X138320738Y-68657022D01*
X138320741Y-68657025D01*
X138323748Y-68660819D01*
X138327435Y-68663957D01*
X138327437Y-68663959D01*
X138396657Y-68722870D01*
X138476901Y-68791163D01*
X138481123Y-68793523D01*
X138481128Y-68793526D01*
X138560928Y-68838124D01*
X138652456Y-68889277D01*
X138738803Y-68917333D01*
X138839118Y-68949928D01*
X138839121Y-68949929D01*
X138843723Y-68951424D01*
X139043420Y-68975236D01*
X139048242Y-68974865D01*
X139048245Y-68974865D01*
X139114574Y-68969761D01*
X139243938Y-68959807D01*
X139437640Y-68905724D01*
X139441953Y-68903545D01*
X139441959Y-68903543D01*
X139612828Y-68817231D01*
X139612830Y-68817229D01*
X139617149Y-68815048D01*
X139637642Y-68799037D01*
X139771812Y-68694213D01*
X139771814Y-68694211D01*
X139775627Y-68691232D01*
X139778783Y-68687576D01*
X139778788Y-68687571D01*
X139883254Y-68566545D01*
X139907037Y-68538992D01*
X139970962Y-68426463D01*
X140003985Y-68368333D01*
X140003986Y-68368330D01*
X140006374Y-68364127D01*
X140055803Y-68215536D01*
X140068327Y-68177888D01*
X140068327Y-68177886D01*
X140069854Y-68173297D01*
X140095060Y-67973772D01*
X140095462Y-67945000D01*
X140080025Y-67787563D01*
X140076309Y-67749659D01*
X140076308Y-67749655D01*
X140075837Y-67744849D01*
X140071533Y-67730593D01*
X140043867Y-67638957D01*
X140045149Y-67577785D01*
X140082142Y-67529049D01*
X140140716Y-67511365D01*
X140198498Y-67531487D01*
X140208646Y-67540339D01*
X140218918Y-67550611D01*
X140268858Y-67583979D01*
X140286526Y-67591298D01*
X140330538Y-67600052D01*
X140340160Y-67601000D01*
X140610320Y-67601000D01*
X140623005Y-67596878D01*
X140626000Y-67592757D01*
X140626000Y-67095680D01*
X140621878Y-67082995D01*
X140617757Y-67080000D01*
X140170680Y-67080000D01*
X140157995Y-67084122D01*
X140155000Y-67088243D01*
X140155000Y-67413458D01*
X140136093Y-67471649D01*
X140086593Y-67507613D01*
X140025407Y-67507613D01*
X139975907Y-67471649D01*
X139968588Y-67459936D01*
X139925567Y-67379025D01*
X139925565Y-67379021D01*
X139923294Y-67374751D01*
X139908151Y-67356183D01*
X139799247Y-67222654D01*
X139799246Y-67222653D01*
X139796186Y-67218901D01*
X139698842Y-67138371D01*
X139644954Y-67093791D01*
X139644952Y-67093790D01*
X139641227Y-67090708D01*
X139501176Y-67014983D01*
X139468574Y-66997355D01*
X139468573Y-66997355D01*
X139464320Y-66995055D01*
X139360021Y-66962769D01*
X139276824Y-66937015D01*
X139276820Y-66937014D01*
X139272203Y-66935585D01*
X139267395Y-66935080D01*
X139267392Y-66935079D01*
X139077010Y-66915069D01*
X139077008Y-66915069D01*
X139072194Y-66914563D01*
X139009198Y-66920296D01*
X138876731Y-66932351D01*
X138876727Y-66932352D01*
X138871911Y-66932790D01*
X138867269Y-66934156D01*
X138867265Y-66934157D01*
X138683629Y-66988204D01*
X138683626Y-66988205D01*
X138678982Y-66989572D01*
X138661000Y-66998973D01*
X138505054Y-67080499D01*
X138505050Y-67080502D01*
X138500757Y-67082746D01*
X138496981Y-67085782D01*
X138496978Y-67085784D01*
X138347796Y-67205730D01*
X138344024Y-67208763D01*
X138340915Y-67212468D01*
X138340912Y-67212471D01*
X138217869Y-67359108D01*
X138214752Y-67362823D01*
X138212416Y-67367071D01*
X138212416Y-67367072D01*
X138180754Y-67424665D01*
X138136152Y-67466549D01*
X138075449Y-67474217D01*
X138021832Y-67444741D01*
X137995781Y-67389379D01*
X137995000Y-67376971D01*
X137995000Y-66556320D01*
X140155000Y-66556320D01*
X140159122Y-66569005D01*
X140163243Y-66572000D01*
X140610320Y-66572000D01*
X140623005Y-66567878D01*
X140626000Y-66563757D01*
X140626000Y-66066680D01*
X140621878Y-66053995D01*
X140617757Y-66051000D01*
X140340160Y-66051000D01*
X140330538Y-66051948D01*
X140286526Y-66060702D01*
X140268858Y-66068021D01*
X140218918Y-66101389D01*
X140205389Y-66114918D01*
X140172021Y-66164858D01*
X140164702Y-66182526D01*
X140155948Y-66226538D01*
X140155000Y-66236160D01*
X140155000Y-66556320D01*
X137995000Y-66556320D01*
X137995000Y-65975819D01*
X138013907Y-65917628D01*
X138063407Y-65881664D01*
X138124593Y-65881664D01*
X138174093Y-65917628D01*
X138182051Y-65930566D01*
X138198828Y-65963210D01*
X138201839Y-65967009D01*
X138320738Y-66117022D01*
X138320741Y-66117025D01*
X138323748Y-66120819D01*
X138327435Y-66123957D01*
X138327437Y-66123959D01*
X138375493Y-66164858D01*
X138476901Y-66251163D01*
X138481123Y-66253523D01*
X138481128Y-66253526D01*
X138519638Y-66275048D01*
X138652456Y-66349277D01*
X138716499Y-66370086D01*
X138839118Y-66409928D01*
X138839121Y-66409929D01*
X138843723Y-66411424D01*
X139043420Y-66435236D01*
X139048242Y-66434865D01*
X139048245Y-66434865D01*
X139114574Y-66429761D01*
X139243938Y-66419807D01*
X139437640Y-66365724D01*
X139441953Y-66363545D01*
X139441959Y-66363543D01*
X139612828Y-66277231D01*
X139612830Y-66277229D01*
X139617149Y-66275048D01*
X139666924Y-66236160D01*
X139771812Y-66154213D01*
X139771814Y-66154211D01*
X139775627Y-66151232D01*
X139778783Y-66147576D01*
X139778788Y-66147571D01*
X139897378Y-66010182D01*
X139907037Y-65998992D01*
X139968251Y-65891235D01*
X140003985Y-65828333D01*
X140003986Y-65828330D01*
X140006374Y-65824127D01*
X140053789Y-65681592D01*
X140068327Y-65637888D01*
X140068327Y-65637886D01*
X140069854Y-65633297D01*
X140073936Y-65600989D01*
X140087390Y-65494486D01*
X140095060Y-65433772D01*
X140095462Y-65405000D01*
X140083360Y-65281572D01*
X140076309Y-65209659D01*
X140076308Y-65209655D01*
X140075837Y-65204849D01*
X140017710Y-65012321D01*
X139962559Y-64908598D01*
X139925567Y-64839025D01*
X139925565Y-64839021D01*
X139923294Y-64834751D01*
X139917027Y-64827066D01*
X139799247Y-64682654D01*
X139799246Y-64682653D01*
X139796186Y-64678901D01*
X139666799Y-64571863D01*
X139644954Y-64553791D01*
X139644952Y-64553790D01*
X139641227Y-64550708D01*
X139464320Y-64455055D01*
X139395223Y-64433666D01*
X139276824Y-64397015D01*
X139276820Y-64397014D01*
X139272203Y-64395585D01*
X139267395Y-64395080D01*
X139267392Y-64395079D01*
X139077010Y-64375069D01*
X139077008Y-64375069D01*
X139072194Y-64374563D01*
X139008770Y-64380335D01*
X138876731Y-64392351D01*
X138876727Y-64392352D01*
X138871911Y-64392790D01*
X138867269Y-64394156D01*
X138867265Y-64394157D01*
X138683629Y-64448204D01*
X138683626Y-64448205D01*
X138678982Y-64449572D01*
X138668494Y-64455055D01*
X138505054Y-64540499D01*
X138505050Y-64540502D01*
X138500757Y-64542746D01*
X138496981Y-64545782D01*
X138496978Y-64545784D01*
X138357048Y-64658291D01*
X138344024Y-64668763D01*
X138340915Y-64672468D01*
X138340912Y-64672471D01*
X138222775Y-64813261D01*
X138214752Y-64822823D01*
X138212416Y-64827071D01*
X138212416Y-64827072D01*
X138180754Y-64884665D01*
X138136152Y-64926549D01*
X138075449Y-64934217D01*
X138021832Y-64904741D01*
X137995781Y-64849379D01*
X137995000Y-64836971D01*
X137995000Y-64065840D01*
X140155000Y-64065840D01*
X140155948Y-64075462D01*
X140164702Y-64119474D01*
X140172021Y-64137142D01*
X140205389Y-64187082D01*
X140218918Y-64200611D01*
X140268858Y-64233979D01*
X140286526Y-64241298D01*
X140330538Y-64250052D01*
X140340160Y-64251000D01*
X140610320Y-64251000D01*
X140623005Y-64246878D01*
X140626000Y-64242757D01*
X140626000Y-63745680D01*
X140621878Y-63732995D01*
X140617757Y-63730000D01*
X140170680Y-63730000D01*
X140157995Y-63734122D01*
X140155000Y-63738243D01*
X140155000Y-64065840D01*
X137995000Y-64065840D01*
X137995000Y-63435819D01*
X138013907Y-63377628D01*
X138063407Y-63341664D01*
X138124593Y-63341664D01*
X138174093Y-63377628D01*
X138182051Y-63390566D01*
X138198828Y-63423210D01*
X138201839Y-63427009D01*
X138320738Y-63577022D01*
X138320741Y-63577025D01*
X138323748Y-63580819D01*
X138327435Y-63583957D01*
X138327437Y-63583959D01*
X138395969Y-63642284D01*
X138476901Y-63711163D01*
X138481123Y-63713523D01*
X138481128Y-63713526D01*
X138567758Y-63761941D01*
X138652456Y-63809277D01*
X138734900Y-63836065D01*
X138839118Y-63869928D01*
X138839121Y-63869929D01*
X138843723Y-63871424D01*
X139043420Y-63895236D01*
X139048242Y-63894865D01*
X139048245Y-63894865D01*
X139114574Y-63889761D01*
X139243938Y-63879807D01*
X139437640Y-63825724D01*
X139441953Y-63823545D01*
X139441959Y-63823543D01*
X139612828Y-63737231D01*
X139612830Y-63737229D01*
X139617149Y-63735048D01*
X139652478Y-63707446D01*
X139771812Y-63614213D01*
X139771814Y-63614211D01*
X139775627Y-63611232D01*
X139778783Y-63607576D01*
X139778788Y-63607571D01*
X139896203Y-63471543D01*
X139907037Y-63458992D01*
X139973358Y-63342246D01*
X140003985Y-63288333D01*
X140003986Y-63288330D01*
X140006374Y-63284127D01*
X140007899Y-63279543D01*
X140007902Y-63279536D01*
X140010855Y-63270657D01*
X140047163Y-63221409D01*
X140105484Y-63202907D01*
X140162986Y-63221813D01*
G37*
%TD.AperFunction*%
%TA.AperFunction,Conductor*%
G36*
X146437826Y-62924861D02*
G01*
X146439137Y-62923550D01*
X146446029Y-62930442D01*
X146451448Y-62938552D01*
X146517769Y-62982867D01*
X146527332Y-62984769D01*
X146527334Y-62984770D01*
X146550005Y-62989279D01*
X146576252Y-62994500D01*
X147104810Y-62994500D01*
X147163001Y-63013407D01*
X147174814Y-63023496D01*
X147295695Y-63144377D01*
X147323472Y-63198894D01*
X147323472Y-63229867D01*
X147320000Y-63251789D01*
X147320000Y-64280983D01*
X147301093Y-64339174D01*
X147281269Y-64359523D01*
X147221718Y-64405218D01*
X147125464Y-64530659D01*
X147064956Y-64676738D01*
X147058465Y-64726045D01*
X147046983Y-64813261D01*
X147044318Y-64833500D01*
X147064956Y-64990262D01*
X147125464Y-65136341D01*
X147221718Y-65261782D01*
X147226871Y-65265736D01*
X147346072Y-65357202D01*
X147380728Y-65407626D01*
X147384805Y-65435744D01*
X147384805Y-65873930D01*
X147365898Y-65932121D01*
X147355809Y-65943934D01*
X146794426Y-66505317D01*
X146791724Y-66509361D01*
X146767316Y-66545890D01*
X146719266Y-66583770D01*
X146658127Y-66586172D01*
X146607254Y-66552179D01*
X146602684Y-66545890D01*
X146578276Y-66509361D01*
X146575574Y-66505317D01*
X145832402Y-65762145D01*
X145804625Y-65707628D01*
X145816671Y-65642639D01*
X145818358Y-65639717D01*
X145822309Y-65634568D01*
X145882817Y-65488489D01*
X145903455Y-65331727D01*
X145882817Y-65174965D01*
X145822309Y-65028886D01*
X145726055Y-64903445D01*
X145600614Y-64807191D01*
X145454535Y-64746683D01*
X145297773Y-64726045D01*
X145141011Y-64746683D01*
X145057385Y-64781322D01*
X144996389Y-64786123D01*
X144944220Y-64754154D01*
X144920805Y-64697626D01*
X144920500Y-64689858D01*
X144920500Y-64433666D01*
X144939407Y-64375475D01*
X144988907Y-64339511D01*
X145050093Y-64339511D01*
X145074502Y-64351351D01*
X145112857Y-64376979D01*
X145130526Y-64384298D01*
X145174538Y-64393052D01*
X145184160Y-64394000D01*
X145399320Y-64394000D01*
X145412005Y-64389878D01*
X145415000Y-64385757D01*
X145415000Y-64378320D01*
X145923000Y-64378320D01*
X145927122Y-64391005D01*
X145931243Y-64394000D01*
X146153840Y-64394000D01*
X146163462Y-64393052D01*
X146207474Y-64384298D01*
X146225142Y-64376979D01*
X146275082Y-64343611D01*
X146295504Y-64323189D01*
X146297677Y-64325362D01*
X146333238Y-64297330D01*
X146394376Y-64294930D01*
X146438362Y-64324323D01*
X146439496Y-64323189D01*
X146445198Y-64328891D01*
X146445249Y-64328925D01*
X146445294Y-64328987D01*
X146459918Y-64343611D01*
X146509858Y-64376979D01*
X146527526Y-64384298D01*
X146571538Y-64393052D01*
X146581160Y-64394000D01*
X146796320Y-64394000D01*
X146809005Y-64389878D01*
X146812000Y-64385757D01*
X146812000Y-64088680D01*
X146807878Y-64075995D01*
X146803757Y-64073000D01*
X146411682Y-64073000D01*
X146403738Y-64075581D01*
X146354273Y-64075581D01*
X146354107Y-64076626D01*
X146347509Y-64075581D01*
X146342552Y-64075581D01*
X146340317Y-64074442D01*
X146331211Y-64073000D01*
X145938680Y-64073000D01*
X145925995Y-64077122D01*
X145923000Y-64081243D01*
X145923000Y-64378320D01*
X145415000Y-64378320D01*
X145415000Y-64088680D01*
X145410878Y-64075995D01*
X145406757Y-64073000D01*
X145017511Y-64073000D01*
X144959320Y-64054093D01*
X144923356Y-64004593D01*
X144920413Y-63993314D01*
X144910770Y-63944834D01*
X144910769Y-63944832D01*
X144908867Y-63935269D01*
X144864552Y-63868948D01*
X144798231Y-63824633D01*
X144788668Y-63822731D01*
X144788666Y-63822730D01*
X144765995Y-63818221D01*
X144739748Y-63813000D01*
X143250252Y-63813000D01*
X143223852Y-63818251D01*
X143201329Y-63822731D01*
X143201327Y-63822732D01*
X143191769Y-63824633D01*
X143188628Y-63826732D01*
X143131388Y-63831236D01*
X143079219Y-63799267D01*
X143055805Y-63742738D01*
X143055500Y-63734972D01*
X143055500Y-63549320D01*
X144999000Y-63549320D01*
X145003122Y-63562005D01*
X145007243Y-63565000D01*
X145399320Y-63565000D01*
X145412005Y-63560878D01*
X145415000Y-63556757D01*
X145415000Y-63549320D01*
X145923000Y-63549320D01*
X145927122Y-63562005D01*
X145931243Y-63565000D01*
X146323318Y-63565000D01*
X146331262Y-63562419D01*
X146380727Y-63562419D01*
X146380893Y-63561374D01*
X146387491Y-63562419D01*
X146392448Y-63562419D01*
X146394683Y-63563558D01*
X146403789Y-63565000D01*
X146796320Y-63565000D01*
X146809005Y-63560878D01*
X146812000Y-63556757D01*
X146812000Y-63259680D01*
X146807878Y-63246995D01*
X146803757Y-63244000D01*
X146581160Y-63244000D01*
X146571538Y-63244948D01*
X146527526Y-63253702D01*
X146509858Y-63261021D01*
X146459918Y-63294389D01*
X146439496Y-63314811D01*
X146437323Y-63312638D01*
X146401762Y-63340670D01*
X146340624Y-63343070D01*
X146296638Y-63313677D01*
X146295504Y-63314811D01*
X146289802Y-63309109D01*
X146289751Y-63309075D01*
X146289706Y-63309013D01*
X146275082Y-63294389D01*
X146225142Y-63261021D01*
X146207474Y-63253702D01*
X146163462Y-63244948D01*
X146153840Y-63244000D01*
X145938680Y-63244000D01*
X145925995Y-63248122D01*
X145923000Y-63252243D01*
X145923000Y-63549320D01*
X145415000Y-63549320D01*
X145415000Y-63259680D01*
X145410878Y-63246995D01*
X145406757Y-63244000D01*
X145184160Y-63244000D01*
X145174538Y-63244948D01*
X145130526Y-63253702D01*
X145112858Y-63261021D01*
X145059630Y-63296586D01*
X145006636Y-63311532D01*
X145010073Y-63316676D01*
X145007207Y-63365288D01*
X145010604Y-63365964D01*
X144999948Y-63419538D01*
X144999000Y-63429160D01*
X144999000Y-63549320D01*
X143055500Y-63549320D01*
X143055500Y-63392028D01*
X143074407Y-63333837D01*
X143123907Y-63297873D01*
X143185043Y-63297873D01*
X143191769Y-63302367D01*
X143201327Y-63304268D01*
X143201329Y-63304269D01*
X143223852Y-63308749D01*
X143250252Y-63314000D01*
X144739748Y-63314000D01*
X144765995Y-63308779D01*
X144788666Y-63304270D01*
X144788668Y-63304269D01*
X144798231Y-63302367D01*
X144859789Y-63261235D01*
X144912784Y-63246288D01*
X144909346Y-63241143D01*
X144912222Y-63192398D01*
X144908867Y-63191731D01*
X144918695Y-63142321D01*
X144920500Y-63133248D01*
X144920500Y-63034267D01*
X144939407Y-62976076D01*
X144988907Y-62940112D01*
X145050093Y-62940112D01*
X145074503Y-62951952D01*
X145120769Y-62982867D01*
X145130332Y-62984769D01*
X145130334Y-62984770D01*
X145153005Y-62989279D01*
X145179252Y-62994500D01*
X146158748Y-62994500D01*
X146184995Y-62989279D01*
X146207666Y-62984770D01*
X146207668Y-62984769D01*
X146217231Y-62982867D01*
X146283552Y-62938552D01*
X146288971Y-62930442D01*
X146295863Y-62923550D01*
X146298178Y-62925865D01*
X146333234Y-62898229D01*
X146394372Y-62895827D01*
X146437826Y-62924861D01*
G37*
%TD.AperFunction*%
%TA.AperFunction,Conductor*%
G36*
X149565191Y-62883907D02*
G01*
X149601155Y-62933407D01*
X149606000Y-62964000D01*
X149606000Y-64013320D01*
X149610122Y-64026005D01*
X149614243Y-64029000D01*
X149671839Y-64029000D01*
X149673443Y-64028842D01*
X149674163Y-64029000D01*
X149676698Y-64029000D01*
X149676698Y-64029556D01*
X149733207Y-64041955D01*
X149773849Y-64087692D01*
X149779846Y-64148583D01*
X149765461Y-64182367D01*
X149739133Y-64221769D01*
X149737231Y-64231332D01*
X149737230Y-64231334D01*
X149733914Y-64248007D01*
X149727500Y-64280252D01*
X149727500Y-65201479D01*
X149708593Y-65259670D01*
X149659093Y-65295634D01*
X149628500Y-65300479D01*
X149496128Y-65300479D01*
X149487499Y-65300102D01*
X149457416Y-65297470D01*
X149448787Y-65296715D01*
X149440420Y-65298957D01*
X149411245Y-65306775D01*
X149402810Y-65308645D01*
X149373077Y-65313887D01*
X149373075Y-65313888D01*
X149364549Y-65315391D01*
X149357050Y-65319721D01*
X149351565Y-65321717D01*
X149346278Y-65324183D01*
X149337910Y-65326425D01*
X149321150Y-65338161D01*
X149306083Y-65348711D01*
X149298802Y-65353350D01*
X149265139Y-65372785D01*
X149240163Y-65402550D01*
X149234329Y-65408918D01*
X148812855Y-65830392D01*
X148758338Y-65858169D01*
X148697906Y-65848598D01*
X148660769Y-65811461D01*
X148659312Y-65812434D01*
X148628884Y-65766895D01*
X148628881Y-65766892D01*
X148626184Y-65762855D01*
X148209347Y-65346018D01*
X148205310Y-65343321D01*
X148205307Y-65343318D01*
X148167862Y-65318298D01*
X148129983Y-65270248D01*
X148127581Y-65209109D01*
X148144323Y-65175715D01*
X148170585Y-65141491D01*
X148170587Y-65141487D01*
X148174536Y-65136341D01*
X148235044Y-64990262D01*
X148255682Y-64833500D01*
X148253787Y-64819108D01*
X148240536Y-64718452D01*
X148251686Y-64658291D01*
X148296069Y-64616174D01*
X148351610Y-64607377D01*
X148399500Y-64613682D01*
X148556262Y-64593044D01*
X148702341Y-64532536D01*
X148827782Y-64436282D01*
X148924036Y-64310841D01*
X148984544Y-64164762D01*
X148991085Y-64115078D01*
X149017426Y-64059853D01*
X149071197Y-64030658D01*
X149079591Y-64029887D01*
X149095005Y-64024878D01*
X149098000Y-64020757D01*
X149098000Y-62964000D01*
X149116907Y-62905809D01*
X149166407Y-62869845D01*
X149197000Y-62865000D01*
X149507000Y-62865000D01*
X149565191Y-62883907D01*
G37*
%TD.AperFunction*%
%TA.AperFunction,Conductor*%
G36*
X138174093Y-58297628D02*
G01*
X138182051Y-58310566D01*
X138198828Y-58343210D01*
X138201839Y-58347009D01*
X138320738Y-58497022D01*
X138320741Y-58497025D01*
X138323748Y-58500819D01*
X138327435Y-58503957D01*
X138327437Y-58503959D01*
X138363223Y-58534415D01*
X138476901Y-58631163D01*
X138481123Y-58633523D01*
X138481128Y-58633526D01*
X138566602Y-58681295D01*
X138652456Y-58729277D01*
X138755886Y-58762884D01*
X138839118Y-58789928D01*
X138839121Y-58789929D01*
X138843723Y-58791424D01*
X139043420Y-58815236D01*
X139048242Y-58814865D01*
X139048245Y-58814865D01*
X139114574Y-58809761D01*
X139243938Y-58799807D01*
X139437640Y-58745724D01*
X139441953Y-58743545D01*
X139441959Y-58743543D01*
X139612828Y-58657231D01*
X139612830Y-58657229D01*
X139617149Y-58655048D01*
X139644696Y-58633526D01*
X139771812Y-58534213D01*
X139771814Y-58534211D01*
X139775627Y-58531232D01*
X139778789Y-58527569D01*
X139778793Y-58527565D01*
X139889931Y-58398811D01*
X139942266Y-58367116D01*
X139964873Y-58364500D01*
X140150778Y-58364500D01*
X140162660Y-58366064D01*
X140162687Y-58365756D01*
X140171314Y-58366511D01*
X140179682Y-58368753D01*
X140218397Y-58365366D01*
X140227026Y-58364989D01*
X140544931Y-58364989D01*
X140603122Y-58383896D01*
X140639086Y-58433396D01*
X140639086Y-58494582D01*
X140636395Y-58501874D01*
X140595242Y-58601227D01*
X140592757Y-58607227D01*
X140572119Y-58763989D01*
X140592757Y-58920751D01*
X140653265Y-59066830D01*
X140749519Y-59192271D01*
X140754672Y-59196225D01*
X140759256Y-59200809D01*
X140758219Y-59201846D01*
X140788658Y-59246136D01*
X140787056Y-59307301D01*
X140748739Y-59356567D01*
X140735448Y-59365448D01*
X140691133Y-59431769D01*
X140689231Y-59441332D01*
X140689230Y-59441334D01*
X140685584Y-59459666D01*
X140679500Y-59490252D01*
X140679500Y-60729748D01*
X140691133Y-60788231D01*
X140735448Y-60854552D01*
X140770070Y-60877686D01*
X140807947Y-60925736D01*
X140810349Y-60986874D01*
X140776355Y-61037747D01*
X140770076Y-61042310D01*
X140735448Y-61065448D01*
X140691133Y-61131769D01*
X140679500Y-61190252D01*
X140679500Y-62429748D01*
X140680448Y-62434512D01*
X140688890Y-62476953D01*
X140691133Y-62488231D01*
X140696552Y-62496341D01*
X140730400Y-62546998D01*
X140747009Y-62605887D01*
X140725831Y-62663290D01*
X140674958Y-62697283D01*
X140648085Y-62701000D01*
X140340160Y-62701000D01*
X140330538Y-62701948D01*
X140286526Y-62710702D01*
X140268857Y-62718021D01*
X140230001Y-62743983D01*
X140171112Y-62760591D01*
X140113709Y-62739413D01*
X140079717Y-62688539D01*
X140076472Y-62671324D01*
X140076309Y-62669661D01*
X140076309Y-62669659D01*
X140075837Y-62664849D01*
X140065948Y-62632093D01*
X140054392Y-62593819D01*
X140017710Y-62472321D01*
X139961426Y-62366467D01*
X139925567Y-62299025D01*
X139925565Y-62299021D01*
X139923294Y-62294751D01*
X139902658Y-62269448D01*
X139799247Y-62142654D01*
X139799246Y-62142653D01*
X139796186Y-62138901D01*
X139641227Y-62010708D01*
X139464320Y-61915055D01*
X139369454Y-61885689D01*
X139276824Y-61857015D01*
X139276820Y-61857014D01*
X139272203Y-61855585D01*
X139267395Y-61855080D01*
X139267392Y-61855079D01*
X139077010Y-61835069D01*
X139077008Y-61835069D01*
X139072194Y-61834563D01*
X139005547Y-61840628D01*
X138876731Y-61852351D01*
X138876727Y-61852352D01*
X138871911Y-61852790D01*
X138867269Y-61854156D01*
X138867265Y-61854157D01*
X138683629Y-61908204D01*
X138683626Y-61908205D01*
X138678982Y-61909572D01*
X138668494Y-61915055D01*
X138505054Y-62000499D01*
X138505050Y-62000502D01*
X138500757Y-62002746D01*
X138496981Y-62005782D01*
X138496978Y-62005784D01*
X138480985Y-62018643D01*
X138344024Y-62128763D01*
X138340915Y-62132468D01*
X138340912Y-62132471D01*
X138233177Y-62260865D01*
X138214752Y-62282823D01*
X138212416Y-62287071D01*
X138212416Y-62287072D01*
X138180754Y-62344665D01*
X138136152Y-62386549D01*
X138075449Y-62394217D01*
X138021832Y-62364741D01*
X137995781Y-62309379D01*
X137995000Y-62296971D01*
X137995000Y-60895819D01*
X138013907Y-60837628D01*
X138063407Y-60801664D01*
X138124593Y-60801664D01*
X138174093Y-60837628D01*
X138182051Y-60850566D01*
X138198828Y-60883210D01*
X138201839Y-60887009D01*
X138320738Y-61037022D01*
X138320741Y-61037025D01*
X138323748Y-61040819D01*
X138327435Y-61043957D01*
X138327437Y-61043959D01*
X138392171Y-61099052D01*
X138476901Y-61171163D01*
X138481123Y-61173523D01*
X138481128Y-61173526D01*
X138578724Y-61228070D01*
X138652456Y-61269277D01*
X138755886Y-61302884D01*
X138839118Y-61329928D01*
X138839121Y-61329929D01*
X138843723Y-61331424D01*
X139043420Y-61355236D01*
X139048242Y-61354865D01*
X139048245Y-61354865D01*
X139114574Y-61349761D01*
X139243938Y-61339807D01*
X139437640Y-61285724D01*
X139441953Y-61283545D01*
X139441959Y-61283543D01*
X139612828Y-61197231D01*
X139612830Y-61197229D01*
X139617149Y-61195048D01*
X139623288Y-61190252D01*
X139771812Y-61074213D01*
X139771814Y-61074211D01*
X139775627Y-61071232D01*
X139778783Y-61067576D01*
X139778788Y-61067571D01*
X139863535Y-60969390D01*
X139907037Y-60918992D01*
X139971059Y-60806292D01*
X140003985Y-60748333D01*
X140003986Y-60748330D01*
X140006374Y-60744127D01*
X140069854Y-60553297D01*
X140095060Y-60353772D01*
X140095462Y-60325000D01*
X140075837Y-60124849D01*
X140017710Y-59932321D01*
X139961348Y-59826319D01*
X139925567Y-59759025D01*
X139925565Y-59759021D01*
X139923294Y-59754751D01*
X139914669Y-59744175D01*
X139799247Y-59602654D01*
X139799246Y-59602653D01*
X139796186Y-59598901D01*
X139691633Y-59512407D01*
X139644954Y-59473791D01*
X139644952Y-59473790D01*
X139641227Y-59470708D01*
X139478787Y-59382877D01*
X139468574Y-59377355D01*
X139468573Y-59377355D01*
X139464320Y-59375055D01*
X139389344Y-59351846D01*
X139276824Y-59317015D01*
X139276820Y-59317014D01*
X139272203Y-59315585D01*
X139267395Y-59315080D01*
X139267392Y-59315079D01*
X139077010Y-59295069D01*
X139077008Y-59295069D01*
X139072194Y-59294563D01*
X139005547Y-59300628D01*
X138876731Y-59312351D01*
X138876727Y-59312352D01*
X138871911Y-59312790D01*
X138867269Y-59314156D01*
X138867265Y-59314157D01*
X138683629Y-59368204D01*
X138683626Y-59368205D01*
X138678982Y-59369572D01*
X138658079Y-59380500D01*
X138505054Y-59460499D01*
X138505050Y-59460502D01*
X138500757Y-59462746D01*
X138496981Y-59465782D01*
X138496978Y-59465784D01*
X138360414Y-59575585D01*
X138344024Y-59588763D01*
X138340915Y-59592468D01*
X138340912Y-59592471D01*
X138259762Y-59689182D01*
X138214752Y-59742823D01*
X138212416Y-59747071D01*
X138212416Y-59747072D01*
X138180754Y-59804665D01*
X138136152Y-59846549D01*
X138075449Y-59854217D01*
X138021832Y-59824741D01*
X137995781Y-59769379D01*
X137995000Y-59756971D01*
X137995000Y-58355819D01*
X138013907Y-58297628D01*
X138063407Y-58261664D01*
X138124593Y-58261664D01*
X138174093Y-58297628D01*
G37*
%TD.AperFunction*%
%TA.AperFunction,Conductor*%
G36*
X153793274Y-56733907D02*
G01*
X153829238Y-56783407D01*
X153829238Y-56844593D01*
X153793274Y-56894093D01*
X153780955Y-56901731D01*
X153740757Y-56922746D01*
X153736981Y-56925782D01*
X153736978Y-56925784D01*
X153659314Y-56988228D01*
X153584024Y-57048763D01*
X153580915Y-57052468D01*
X153580912Y-57052471D01*
X153553617Y-57085000D01*
X153454752Y-57202823D01*
X153452416Y-57207071D01*
X153452416Y-57207072D01*
X153445845Y-57219025D01*
X153357866Y-57379058D01*
X153356403Y-57383671D01*
X153356401Y-57383675D01*
X153344890Y-57419962D01*
X153297056Y-57570755D01*
X153291066Y-57624160D01*
X153279486Y-57727397D01*
X153274638Y-57770613D01*
X153277754Y-57807723D01*
X153290514Y-57959666D01*
X153291467Y-57971018D01*
X153346901Y-58164338D01*
X153438828Y-58343210D01*
X153441839Y-58347009D01*
X153560738Y-58497022D01*
X153560741Y-58497025D01*
X153563748Y-58500819D01*
X153567435Y-58503957D01*
X153567437Y-58503959D01*
X153603223Y-58534415D01*
X153716901Y-58631163D01*
X153721123Y-58633523D01*
X153721128Y-58633526D01*
X153806602Y-58681295D01*
X153892456Y-58729277D01*
X153995886Y-58762884D01*
X154079118Y-58789928D01*
X154079121Y-58789929D01*
X154083723Y-58791424D01*
X154283420Y-58815236D01*
X154288242Y-58814865D01*
X154288245Y-58814865D01*
X154354574Y-58809761D01*
X154483938Y-58799807D01*
X154677640Y-58745724D01*
X154681953Y-58743545D01*
X154681959Y-58743543D01*
X154852828Y-58657231D01*
X154852830Y-58657229D01*
X154857149Y-58655048D01*
X154884696Y-58633526D01*
X155011812Y-58534213D01*
X155011814Y-58534211D01*
X155015627Y-58531232D01*
X155018783Y-58527576D01*
X155018788Y-58527571D01*
X155128670Y-58400270D01*
X155147037Y-58378992D01*
X155153283Y-58367998D01*
X155189920Y-58303504D01*
X155235103Y-58262246D01*
X155295907Y-58255426D01*
X155349107Y-58285648D01*
X155374383Y-58341368D01*
X155375000Y-58352404D01*
X155375000Y-59756910D01*
X155356093Y-59815101D01*
X155306593Y-59851065D01*
X155245407Y-59851065D01*
X155208363Y-59824151D01*
X155206269Y-59826319D01*
X155186572Y-59807298D01*
X155176854Y-59812356D01*
X154675296Y-60313914D01*
X154669242Y-60325797D01*
X154670038Y-60330828D01*
X155175857Y-60836647D01*
X155186712Y-60842178D01*
X155204625Y-60825060D01*
X155206669Y-60827199D01*
X155235099Y-60801236D01*
X155295902Y-60794413D01*
X155349104Y-60824633D01*
X155374383Y-60880352D01*
X155375000Y-60891392D01*
X155375000Y-62295844D01*
X155356093Y-62354035D01*
X155306593Y-62389999D01*
X155245407Y-62389999D01*
X155195907Y-62354035D01*
X155188588Y-62342322D01*
X155165567Y-62299025D01*
X155165565Y-62299021D01*
X155163294Y-62294751D01*
X155142658Y-62269448D01*
X155039247Y-62142654D01*
X155039246Y-62142653D01*
X155036186Y-62138901D01*
X154881227Y-62010708D01*
X154704320Y-61915055D01*
X154609454Y-61885689D01*
X154516824Y-61857015D01*
X154516820Y-61857014D01*
X154512203Y-61855585D01*
X154507395Y-61855080D01*
X154507392Y-61855079D01*
X154317010Y-61835069D01*
X154317008Y-61835069D01*
X154312194Y-61834563D01*
X154245547Y-61840628D01*
X154116731Y-61852351D01*
X154116727Y-61852352D01*
X154111911Y-61852790D01*
X154107269Y-61854156D01*
X154107265Y-61854157D01*
X153923629Y-61908204D01*
X153923626Y-61908205D01*
X153918982Y-61909572D01*
X153911797Y-61913328D01*
X153910335Y-61913576D01*
X153910203Y-61913629D01*
X153910191Y-61913600D01*
X153851470Y-61923533D01*
X153795926Y-61895599D01*
X153157780Y-61257454D01*
X153151945Y-61251086D01*
X153126966Y-61221317D01*
X153101685Y-61206721D01*
X153787761Y-61206721D01*
X153794990Y-61214233D01*
X153888433Y-61266456D01*
X153897255Y-61270311D01*
X154079226Y-61329437D01*
X154088639Y-61331506D01*
X154278628Y-61354161D01*
X154288255Y-61354363D01*
X154479023Y-61339684D01*
X154488514Y-61338011D01*
X154672798Y-61286557D01*
X154681777Y-61283075D01*
X154815332Y-61215611D01*
X154823373Y-61207626D01*
X154818181Y-61197391D01*
X154316086Y-60695296D01*
X154304203Y-60689242D01*
X154299172Y-60690038D01*
X153793238Y-61195972D01*
X153787761Y-61206721D01*
X153101685Y-61206721D01*
X153093303Y-61201882D01*
X153086022Y-61197243D01*
X153079405Y-61192610D01*
X153054195Y-61174957D01*
X153045827Y-61172715D01*
X153040540Y-61170249D01*
X153035055Y-61168253D01*
X153027556Y-61163923D01*
X153019030Y-61162420D01*
X153019028Y-61162419D01*
X152989295Y-61157177D01*
X152980860Y-61155307D01*
X152951685Y-61147489D01*
X152943318Y-61145247D01*
X152912130Y-61147976D01*
X152852513Y-61134213D01*
X152812372Y-61088037D01*
X152806403Y-61030040D01*
X152816552Y-60979014D01*
X152817500Y-60974248D01*
X152817500Y-60315440D01*
X153275545Y-60315440D01*
X153291556Y-60506108D01*
X153293294Y-60515576D01*
X153346031Y-60699496D01*
X153349582Y-60708464D01*
X153414635Y-60835043D01*
X153422762Y-60843114D01*
X153432826Y-60837964D01*
X153934704Y-60336086D01*
X153940758Y-60324203D01*
X153939962Y-60319172D01*
X153433875Y-59813085D01*
X153423233Y-59807663D01*
X153415619Y-59815042D01*
X153360660Y-59915012D01*
X153356862Y-59923873D01*
X153299012Y-60106242D01*
X153297007Y-60115673D01*
X153275679Y-60305812D01*
X153275545Y-60315440D01*
X152817500Y-60315440D01*
X152817500Y-59934752D01*
X152805867Y-59876269D01*
X152761552Y-59809948D01*
X152695231Y-59765633D01*
X152685668Y-59763731D01*
X152685666Y-59763730D01*
X152662010Y-59759025D01*
X152636748Y-59754000D01*
X152510981Y-59754000D01*
X152452790Y-59735093D01*
X152416826Y-59685593D01*
X152416826Y-59624407D01*
X152455979Y-59572685D01*
X152474720Y-59560163D01*
X152511552Y-59535552D01*
X152555867Y-59469231D01*
X152558960Y-59453685D01*
X152561062Y-59443115D01*
X153787110Y-59443115D01*
X153792214Y-59453004D01*
X154293914Y-59954704D01*
X154305797Y-59960758D01*
X154310828Y-59959962D01*
X154817105Y-59453685D01*
X154822472Y-59443151D01*
X154814943Y-59435436D01*
X154708390Y-59377823D01*
X154699500Y-59374086D01*
X154516724Y-59317508D01*
X154507290Y-59315571D01*
X154317006Y-59295571D01*
X154307368Y-59295504D01*
X154116825Y-59312844D01*
X154107361Y-59314650D01*
X153923817Y-59368670D01*
X153914876Y-59372283D01*
X153795214Y-59434841D01*
X153787110Y-59443115D01*
X152561062Y-59443115D01*
X152563319Y-59431769D01*
X152567500Y-59410748D01*
X152567500Y-58421252D01*
X152562279Y-58395005D01*
X152557770Y-58372334D01*
X152557769Y-58372332D01*
X152555867Y-58362769D01*
X152511552Y-58296448D01*
X152455339Y-58258887D01*
X152417460Y-58210837D01*
X152415058Y-58149699D01*
X152418878Y-58138684D01*
X152430989Y-58109448D01*
X152467449Y-58065021D01*
X152511552Y-58035552D01*
X152555867Y-57969231D01*
X152567500Y-57910748D01*
X152567500Y-56921252D01*
X152560221Y-56884658D01*
X152557770Y-56872334D01*
X152557769Y-56872332D01*
X152555867Y-56862769D01*
X152550449Y-56854660D01*
X152549300Y-56851887D01*
X152544499Y-56790890D01*
X152576468Y-56738720D01*
X152632996Y-56715305D01*
X152640764Y-56715000D01*
X153735083Y-56715000D01*
X153793274Y-56733907D01*
G37*
%TD.AperFunction*%
%TA.AperFunction,Conductor*%
G36*
X141187813Y-56733907D02*
G01*
X141223777Y-56783407D01*
X141223777Y-56844593D01*
X141211938Y-56869000D01*
X141206022Y-56877854D01*
X141198702Y-56895526D01*
X141189948Y-56939538D01*
X141189000Y-56949160D01*
X141189000Y-57069320D01*
X141193122Y-57082005D01*
X141197243Y-57085000D01*
X142513320Y-57085000D01*
X142526005Y-57080878D01*
X142529000Y-57076757D01*
X142529000Y-56949160D01*
X142528052Y-56939538D01*
X142519298Y-56895526D01*
X142511978Y-56877854D01*
X142506062Y-56869000D01*
X142489454Y-56810112D01*
X142510632Y-56752709D01*
X142561507Y-56718717D01*
X142588378Y-56715000D01*
X143703162Y-56715000D01*
X143761353Y-56733907D01*
X143797317Y-56783407D01*
X143797317Y-56844593D01*
X143770709Y-56881216D01*
X143773183Y-56883639D01*
X143754110Y-56903115D01*
X143759214Y-56913004D01*
X144260914Y-57414704D01*
X144272797Y-57420758D01*
X144277828Y-57419962D01*
X144784105Y-56913685D01*
X144789472Y-56903151D01*
X144771425Y-56884658D01*
X144774183Y-56881966D01*
X144750195Y-56856775D01*
X144742104Y-56796127D01*
X144771206Y-56742306D01*
X144826385Y-56715869D01*
X144839477Y-56715000D01*
X146242083Y-56715000D01*
X146300274Y-56733907D01*
X146336238Y-56783407D01*
X146336238Y-56844593D01*
X146300274Y-56894093D01*
X146287955Y-56901731D01*
X146247757Y-56922746D01*
X146243981Y-56925782D01*
X146243978Y-56925784D01*
X146166314Y-56988228D01*
X146091024Y-57048763D01*
X146087915Y-57052468D01*
X146087912Y-57052471D01*
X146060617Y-57085000D01*
X145961752Y-57202823D01*
X145959416Y-57207071D01*
X145959416Y-57207072D01*
X145952845Y-57219025D01*
X145864866Y-57379058D01*
X145863403Y-57383671D01*
X145863401Y-57383675D01*
X145851890Y-57419962D01*
X145804056Y-57570755D01*
X145798066Y-57624160D01*
X145786486Y-57727397D01*
X145781638Y-57770613D01*
X145784754Y-57807723D01*
X145797514Y-57959666D01*
X145798467Y-57971018D01*
X145853901Y-58164338D01*
X145945828Y-58343210D01*
X145948839Y-58347009D01*
X146067738Y-58497022D01*
X146067741Y-58497025D01*
X146070748Y-58500819D01*
X146074435Y-58503957D01*
X146074437Y-58503959D01*
X146209149Y-58618608D01*
X146241209Y-58670721D01*
X146236515Y-58731726D01*
X146196859Y-58778321D01*
X146144985Y-58793000D01*
X145497034Y-58793000D01*
X145488405Y-58792623D01*
X145458322Y-58789991D01*
X145449693Y-58789236D01*
X145441326Y-58791478D01*
X145412151Y-58799296D01*
X145403716Y-58801166D01*
X145373983Y-58806408D01*
X145373981Y-58806409D01*
X145365455Y-58807912D01*
X145357956Y-58812242D01*
X145352471Y-58814238D01*
X145347184Y-58816704D01*
X145338816Y-58818946D01*
X145309444Y-58839513D01*
X145306989Y-58841232D01*
X145299708Y-58845871D01*
X145266045Y-58865306D01*
X145260478Y-58871941D01*
X145241069Y-58895071D01*
X145235235Y-58901439D01*
X144781574Y-59355100D01*
X144727057Y-59382877D01*
X144673884Y-59376442D01*
X144671320Y-59375055D01*
X144653607Y-59369572D01*
X144483824Y-59317015D01*
X144483820Y-59317014D01*
X144479203Y-59315585D01*
X144474395Y-59315080D01*
X144474392Y-59315079D01*
X144284010Y-59295069D01*
X144284008Y-59295069D01*
X144279194Y-59294563D01*
X144212547Y-59300628D01*
X144083731Y-59312351D01*
X144083727Y-59312352D01*
X144078911Y-59312790D01*
X144074269Y-59314156D01*
X144074265Y-59314157D01*
X143890629Y-59368204D01*
X143890626Y-59368205D01*
X143885982Y-59369572D01*
X143865079Y-59380500D01*
X143712054Y-59460499D01*
X143712050Y-59460502D01*
X143707757Y-59462746D01*
X143703981Y-59465782D01*
X143703978Y-59465784D01*
X143567414Y-59575585D01*
X143551024Y-59588763D01*
X143547915Y-59592468D01*
X143547912Y-59592471D01*
X143466762Y-59689182D01*
X143421752Y-59742823D01*
X143419416Y-59747071D01*
X143419416Y-59747072D01*
X143415086Y-59754948D01*
X143324866Y-59919058D01*
X143323403Y-59923671D01*
X143323401Y-59923675D01*
X143313558Y-59954704D01*
X143264056Y-60110755D01*
X143241638Y-60310613D01*
X143242357Y-60319172D01*
X143258055Y-60506108D01*
X143258467Y-60511018D01*
X143313901Y-60704338D01*
X143405828Y-60883210D01*
X143408839Y-60887009D01*
X143527738Y-61037022D01*
X143527741Y-61037025D01*
X143530748Y-61040819D01*
X143534435Y-61043957D01*
X143534437Y-61043959D01*
X143599171Y-61099052D01*
X143683901Y-61171163D01*
X143688123Y-61173523D01*
X143688128Y-61173526D01*
X143785724Y-61228070D01*
X143827296Y-61272963D01*
X143834541Y-61333718D01*
X143804691Y-61387128D01*
X143749148Y-61412793D01*
X143737426Y-61413489D01*
X142629500Y-61413489D01*
X142571309Y-61394582D01*
X142535345Y-61345082D01*
X142530500Y-61314489D01*
X142530500Y-61190252D01*
X142518867Y-61131769D01*
X142474552Y-61065448D01*
X142439930Y-61042314D01*
X142402053Y-60994264D01*
X142399651Y-60933126D01*
X142433645Y-60882253D01*
X142439924Y-60877690D01*
X142474552Y-60854552D01*
X142518867Y-60788231D01*
X142530500Y-60729748D01*
X142530500Y-59684142D01*
X142549407Y-59625951D01*
X142598907Y-59589987D01*
X142660093Y-59589987D01*
X142667386Y-59592678D01*
X142775741Y-59637560D01*
X142781738Y-59640044D01*
X142912931Y-59657316D01*
X142931801Y-59659800D01*
X142938500Y-59660682D01*
X142945200Y-59659800D01*
X142964069Y-59657316D01*
X143095262Y-59640044D01*
X143241341Y-59579536D01*
X143366782Y-59483282D01*
X143463036Y-59357841D01*
X143523544Y-59211762D01*
X143544182Y-59055000D01*
X143523544Y-58898238D01*
X143463036Y-58752159D01*
X143397477Y-58666721D01*
X143754761Y-58666721D01*
X143761990Y-58674233D01*
X143855433Y-58726456D01*
X143864255Y-58730311D01*
X144046226Y-58789437D01*
X144055639Y-58791506D01*
X144245628Y-58814161D01*
X144255255Y-58814363D01*
X144446023Y-58799684D01*
X144455514Y-58798011D01*
X144639798Y-58746557D01*
X144648777Y-58743075D01*
X144782332Y-58675611D01*
X144790373Y-58667626D01*
X144785181Y-58657391D01*
X144283086Y-58155296D01*
X144271203Y-58149242D01*
X144266172Y-58150038D01*
X143760238Y-58655972D01*
X143754761Y-58666721D01*
X143397477Y-58666721D01*
X143366782Y-58626718D01*
X143302733Y-58577571D01*
X143268077Y-58527148D01*
X143264000Y-58499030D01*
X143264000Y-58400270D01*
X143282907Y-58342079D01*
X143332407Y-58306115D01*
X143378144Y-58302435D01*
X143388082Y-58303973D01*
X143399826Y-58297964D01*
X143901704Y-57796086D01*
X143906946Y-57785797D01*
X144636242Y-57785797D01*
X144637038Y-57790828D01*
X145142857Y-58296647D01*
X145153712Y-58302178D01*
X145161120Y-58295099D01*
X145210522Y-58208135D01*
X145214443Y-58199328D01*
X145274837Y-58017780D01*
X145276972Y-58008379D01*
X145301210Y-57816512D01*
X145301597Y-57810983D01*
X145301921Y-57787759D01*
X145301691Y-57782261D01*
X145282818Y-57589765D01*
X145280943Y-57580302D01*
X145225644Y-57397147D01*
X145221974Y-57388242D01*
X145161989Y-57275426D01*
X145153572Y-57267298D01*
X145143854Y-57272356D01*
X144642296Y-57773914D01*
X144636242Y-57785797D01*
X143906946Y-57785797D01*
X143907758Y-57784203D01*
X143906962Y-57779172D01*
X143400875Y-57273085D01*
X143390233Y-57267663D01*
X143382619Y-57275042D01*
X143327660Y-57375012D01*
X143323862Y-57383873D01*
X143266012Y-57566242D01*
X143264007Y-57575673D01*
X143242679Y-57765812D01*
X143242545Y-57775440D01*
X143255912Y-57934619D01*
X143241940Y-57994187D01*
X143195623Y-58034167D01*
X143134653Y-58039287D01*
X143087256Y-58012907D01*
X142896786Y-57822438D01*
X142890950Y-57816070D01*
X142886694Y-57810998D01*
X142865966Y-57786295D01*
X142832303Y-57766860D01*
X142825022Y-57762221D01*
X142822567Y-57760502D01*
X142793195Y-57739935D01*
X142784827Y-57737693D01*
X142779540Y-57735227D01*
X142774055Y-57733231D01*
X142766556Y-57728901D01*
X142758030Y-57727398D01*
X142758028Y-57727397D01*
X142728295Y-57722155D01*
X142719860Y-57720285D01*
X142690685Y-57712467D01*
X142682318Y-57710225D01*
X142673689Y-57710980D01*
X142643606Y-57713612D01*
X142634977Y-57713989D01*
X142628000Y-57713989D01*
X142569809Y-57695082D01*
X142533845Y-57645582D01*
X142529000Y-57614989D01*
X142529000Y-57608680D01*
X142524878Y-57595995D01*
X142520757Y-57593000D01*
X141204680Y-57593000D01*
X141191995Y-57597122D01*
X141189000Y-57601243D01*
X141189000Y-57614989D01*
X141170093Y-57673180D01*
X141120593Y-57709144D01*
X141090000Y-57713989D01*
X140265711Y-57713989D01*
X140253829Y-57712425D01*
X140253802Y-57712733D01*
X140245175Y-57711978D01*
X140236807Y-57709736D01*
X140228178Y-57710491D01*
X140198095Y-57713123D01*
X140189466Y-57713500D01*
X140178219Y-57713500D01*
X140120028Y-57694593D01*
X140084064Y-57645093D01*
X140079691Y-57624160D01*
X140078792Y-57614989D01*
X140075837Y-57584849D01*
X140017710Y-57392321D01*
X139955556Y-57275426D01*
X139925567Y-57219025D01*
X139925565Y-57219021D01*
X139923294Y-57214751D01*
X139889064Y-57172780D01*
X139799247Y-57062654D01*
X139799246Y-57062653D01*
X139796186Y-57058901D01*
X139641227Y-56930708D01*
X139586440Y-56901085D01*
X139544246Y-56856777D01*
X139536153Y-56796129D01*
X139565254Y-56742307D01*
X139620433Y-56715870D01*
X139633527Y-56715000D01*
X141129622Y-56715000D01*
X141187813Y-56733907D01*
G37*
%TD.AperFunction*%
%TD*%
M02*
