M48
; DRILL file {KiCad (6.0.1)} date Tue Apr 12 16:39:26 2022
; FORMAT={-:-/ absolute / inch / decimal}
; #@! TF.CreationDate,2022-04-12T16:39:26-07:00
; #@! TF.GenerationSoftware,Kicad,Pcbnew,(6.0.1)
; #@! TF.FileFunction,MixedPlating,1,2
FMAT,2
INCH
; #@! TA.AperFunction,Plated,PTH,ViaDrill
T1C0.0157
; #@! TA.AperFunction,Plated,PTH,ComponentDrill
T2C0.0433
%
G90
G05
T1
X5.4495Y-2.725
X5.505Y-2.325
X5.5553Y-2.9979
X5.5582Y-2.3135
X5.6Y-2.5808
X5.6085Y-2.8152
X5.6169Y-2.5453
X5.625Y-3.0475
X5.6275Y-2.325
X5.6325Y-3.0075
X5.6526Y-2.8437
X5.6725Y-2.5675
X5.6856Y-2.8744
X5.6893Y-2.7671
X5.6981Y-2.7059
X5.7171Y-2.795
X5.7204Y-2.5721
X5.725Y-2.89
X5.7289Y-2.833
X5.73Y-2.2475
X5.735Y-2.435
X5.7749Y-2.9636
X5.785Y-2.585
X5.805Y-2.73
X5.813Y-2.5525
X5.8182Y-2.6895
X5.8322Y-2.4315
X5.8425Y-2.52
X5.8475Y-2.7622
X5.875Y-2.55
X5.891Y-2.6226
X5.9175Y-2.325
X5.9187Y-2.7727
X5.925Y-3.0496
X5.9518Y-2.6299
X5.97Y-2.665
X5.98Y-2.2772
X5.98Y-2.48
X6.045Y-2.725
X6.045Y-2.925
T2
X5.475Y-2.275
X5.475Y-2.375
X5.475Y-2.475
X5.475Y-2.575
X5.475Y-2.675
X5.475Y-2.775
X5.475Y-2.875
X5.475Y-2.975
X5.475Y-3.075
X5.575Y-3.075
X5.675Y-3.075
X5.68Y-2.275
X5.68Y-2.375
X5.775Y-3.075
X5.78Y-2.275
X5.78Y-2.375
X5.875Y-3.075
X5.88Y-2.275
X5.88Y-2.375
X5.975Y-3.075
X6.075Y-2.275
X6.075Y-2.375
X6.075Y-2.475
X6.075Y-2.575
X6.075Y-2.675
X6.075Y-2.775
X6.075Y-2.875
X6.075Y-2.975
X6.075Y-3.075
T0
M30
