%TF.GenerationSoftware,KiCad,Pcbnew,(6.0.1)*%
%TF.CreationDate,2022-04-12T17:00:16-07:00*%
%TF.ProjectId,regulator_v3,72656775-6c61-4746-9f72-5f76332e6b69,rev?*%
%TF.SameCoordinates,Original*%
%TF.FileFunction,Legend,Bot*%
%TF.FilePolarity,Positive*%
%FSLAX46Y46*%
G04 Gerber Fmt 4.6, Leading zero omitted, Abs format (unit mm)*
G04 Created by KiCad (PCBNEW (6.0.1)) date 2022-04-12 17:00:16*
%MOMM*%
%LPD*%
G01*
G04 APERTURE LIST*
%ADD10C,0.100000*%
G04 APERTURE END LIST*
D10*
X136506000Y-46761476D02*
X136467904Y-46685285D01*
X136467904Y-46571000D01*
X136506000Y-46456714D01*
X136582190Y-46380523D01*
X136658380Y-46342428D01*
X136810761Y-46304333D01*
X136925047Y-46304333D01*
X137077428Y-46342428D01*
X137153619Y-46380523D01*
X137229809Y-46456714D01*
X137267904Y-46571000D01*
X137267904Y-46647190D01*
X137229809Y-46761476D01*
X137191714Y-46799571D01*
X136925047Y-46799571D01*
X136925047Y-46647190D01*
X137267904Y-47142428D02*
X136467904Y-47142428D01*
X137267904Y-47599571D01*
X136467904Y-47599571D01*
X137267904Y-47980523D02*
X136467904Y-47980523D01*
X136467904Y-48171000D01*
X136506000Y-48285285D01*
X136582190Y-48361476D01*
X136658380Y-48399571D01*
X136810761Y-48437666D01*
X136925047Y-48437666D01*
X137077428Y-48399571D01*
X137153619Y-48361476D01*
X137229809Y-48285285D01*
X137267904Y-48171000D01*
X137267904Y-47980523D01*
X139388857Y-46336023D02*
X139388857Y-46602690D01*
X139807904Y-46716976D02*
X139807904Y-46336023D01*
X139007904Y-46336023D01*
X139007904Y-46716976D01*
X139807904Y-47059833D02*
X139007904Y-47059833D01*
X139807904Y-47516976D01*
X139007904Y-47516976D01*
X141547904Y-46278976D02*
X142347904Y-46545642D01*
X141547904Y-46812309D01*
X141547904Y-47231357D02*
X141547904Y-47383738D01*
X141586000Y-47459928D01*
X141662190Y-47536119D01*
X141814571Y-47574214D01*
X142081238Y-47574214D01*
X142233619Y-47536119D01*
X142309809Y-47459928D01*
X142347904Y-47383738D01*
X142347904Y-47231357D01*
X142309809Y-47155166D01*
X142233619Y-47078976D01*
X142081238Y-47040880D01*
X141814571Y-47040880D01*
X141662190Y-47078976D01*
X141586000Y-47155166D01*
X141547904Y-47231357D01*
X141547904Y-47917071D02*
X142195523Y-47917071D01*
X142271714Y-47955166D01*
X142309809Y-47993261D01*
X142347904Y-48069452D01*
X142347904Y-48221833D01*
X142309809Y-48298023D01*
X142271714Y-48336119D01*
X142195523Y-48374214D01*
X141547904Y-48374214D01*
X141547904Y-48640880D02*
X141547904Y-49098023D01*
X142347904Y-48869452D02*
X141547904Y-48869452D01*
X133927904Y-46304309D02*
X134727904Y-46570976D01*
X133927904Y-46837642D01*
X134727904Y-47104309D02*
X133927904Y-47104309D01*
X134727904Y-47485261D02*
X133927904Y-47485261D01*
X134727904Y-47942404D01*
X133927904Y-47942404D01*
X134423619Y-59709095D02*
X134156952Y-60090047D01*
X133966476Y-59709095D02*
X133966476Y-60509095D01*
X134271238Y-60509095D01*
X134347428Y-60471000D01*
X134385523Y-60432904D01*
X134423619Y-60356714D01*
X134423619Y-60242428D01*
X134385523Y-60166238D01*
X134347428Y-60128142D01*
X134271238Y-60090047D01*
X133966476Y-60090047D01*
X134766476Y-60128142D02*
X135033142Y-60128142D01*
X135147428Y-59709095D02*
X134766476Y-59709095D01*
X134766476Y-60509095D01*
X135147428Y-60509095D01*
X135909333Y-60471000D02*
X135833142Y-60509095D01*
X135718857Y-60509095D01*
X135604571Y-60471000D01*
X135528380Y-60394809D01*
X135490285Y-60318619D01*
X135452190Y-60166238D01*
X135452190Y-60051952D01*
X135490285Y-59899571D01*
X135528380Y-59823380D01*
X135604571Y-59747190D01*
X135718857Y-59709095D01*
X135795047Y-59709095D01*
X135909333Y-59747190D01*
X135947428Y-59785285D01*
X135947428Y-60051952D01*
X135795047Y-60051952D01*
X136290285Y-60509095D02*
X136290285Y-59861476D01*
X136328380Y-59785285D01*
X136366476Y-59747190D01*
X136442666Y-59709095D01*
X136595047Y-59709095D01*
X136671238Y-59747190D01*
X136709333Y-59785285D01*
X136747428Y-59861476D01*
X136747428Y-60509095D01*
X137509333Y-59709095D02*
X137128380Y-59709095D01*
X137128380Y-60509095D01*
X137737904Y-59937666D02*
X138118857Y-59937666D01*
X137661714Y-59709095D02*
X137928380Y-60509095D01*
X138195047Y-59709095D01*
X138347428Y-60509095D02*
X138804571Y-60509095D01*
X138576000Y-59709095D02*
X138576000Y-60509095D01*
X139223619Y-60509095D02*
X139376000Y-60509095D01*
X139452190Y-60471000D01*
X139528380Y-60394809D01*
X139566476Y-60242428D01*
X139566476Y-59975761D01*
X139528380Y-59823380D01*
X139452190Y-59747190D01*
X139376000Y-59709095D01*
X139223619Y-59709095D01*
X139147428Y-59747190D01*
X139071238Y-59823380D01*
X139033142Y-59975761D01*
X139033142Y-60242428D01*
X139071238Y-60394809D01*
X139147428Y-60471000D01*
X139223619Y-60509095D01*
X140366476Y-59709095D02*
X140099809Y-60090047D01*
X139909333Y-59709095D02*
X139909333Y-60509095D01*
X140214095Y-60509095D01*
X140290285Y-60471000D01*
X140328380Y-60432904D01*
X140366476Y-60356714D01*
X140366476Y-60242428D01*
X140328380Y-60166238D01*
X140290285Y-60128142D01*
X140214095Y-60090047D01*
X139909333Y-60090047D01*
X141204571Y-60509095D02*
X141471238Y-59709095D01*
X141737904Y-60509095D01*
X141928380Y-60509095D02*
X142423619Y-60509095D01*
X142156952Y-60204333D01*
X142271238Y-60204333D01*
X142347428Y-60166238D01*
X142385523Y-60128142D01*
X142423619Y-60051952D01*
X142423619Y-59861476D01*
X142385523Y-59785285D01*
X142347428Y-59747190D01*
X142271238Y-59709095D01*
X142042666Y-59709095D01*
X141966476Y-59747190D01*
X141928380Y-59785285D01*
M02*
