%TF.GenerationSoftware,KiCad,Pcbnew,(6.0.1)*%
%TF.CreationDate,2022-04-12T17:00:16-07:00*%
%TF.ProjectId,regulator_v3,72656775-6c61-4746-9f72-5f76332e6b69,rev?*%
%TF.SameCoordinates,Original*%
%TF.FileFunction,Copper,L2,Bot*%
%TF.FilePolarity,Positive*%
%FSLAX46Y46*%
G04 Gerber Fmt 4.6, Leading zero omitted, Abs format (unit mm)*
G04 Created by KiCad (PCBNEW (6.0.1)) date 2022-04-12 17:00:16*
%MOMM*%
%LPD*%
G01*
G04 APERTURE LIST*
%TA.AperFunction,ComponentPad*%
%ADD10C,1.725000*%
%TD*%
%TA.AperFunction,ViaPad*%
%ADD11C,0.800000*%
%TD*%
%TA.AperFunction,Conductor*%
%ADD12C,0.200000*%
%TD*%
G04 APERTURE END LIST*
D10*
%TO.P,J1,1,1*%
%TO.N,/VIN*%
X134366000Y-44704000D03*
%TO.P,J1,2,2*%
%TO.N,GND*%
X136906000Y-44704000D03*
%TO.P,J1,3,3*%
%TO.N,/EN*%
X139446000Y-44704000D03*
%TO.P,J1,4,4*%
%TO.N,/IC_VOUT*%
X141986000Y-44704000D03*
%TD*%
D11*
%TO.N,GND*%
X136779000Y-59055000D03*
X137350500Y-51054000D03*
X138269986Y-47323270D03*
X139001500Y-49530000D03*
X135572500Y-51054000D03*
X137350500Y-49530000D03*
X136461500Y-50292000D03*
X143002000Y-46545500D03*
X141922500Y-52070000D03*
X139001500Y-51054000D03*
X135572500Y-49530000D03*
X138176000Y-50292000D03*
X133790000Y-47688500D03*
%TO.N,/EN*%
X137975998Y-46291500D03*
X133223000Y-53594000D03*
%TO.N,Net-(C2-Pad1)*%
X134493000Y-51752500D03*
X140408498Y-53851998D03*
%TO.N,Net-(C2-Pad2)*%
X140017500Y-52070000D03*
X134512450Y-52760029D03*
%TD*%
D12*
%TO.N,/EN*%
X140271500Y-51181000D02*
X141108009Y-52017509D01*
X140698246Y-54551509D02*
X134180509Y-54551509D01*
X134180509Y-54551509D02*
X133223000Y-53594000D01*
X137975998Y-46291500D02*
X138620500Y-46291500D01*
X141108009Y-52017509D02*
X141108009Y-54141746D01*
X140271500Y-47942500D02*
X140271500Y-51181000D01*
X141108009Y-54141746D02*
X140698246Y-54551509D01*
X138620500Y-46291500D02*
X140271500Y-47942500D01*
%TO.N,Net-(C2-Pad1)*%
X140408498Y-53851998D02*
X134615160Y-53851998D01*
X134615160Y-53851998D02*
X133812939Y-53049777D01*
X133812939Y-53049777D02*
X133812939Y-52432561D01*
X133812939Y-52432561D02*
X134493000Y-51752500D01*
%TO.N,Net-(C2-Pad2)*%
X135202479Y-52070000D02*
X134512450Y-52760029D01*
X140017500Y-52070000D02*
X135202479Y-52070000D01*
%TD*%
%TA.AperFunction,Conductor*%
%TO.N,GND*%
G36*
X135244961Y-43569498D02*
G01*
X136379291Y-43569667D01*
X136437479Y-43588583D01*
X136473435Y-43638088D01*
X136473426Y-43699274D01*
X136437455Y-43748768D01*
X136425142Y-43756401D01*
X136325696Y-43808390D01*
X136317620Y-43813674D01*
X136240860Y-43875392D01*
X136233555Y-43886555D01*
X136233673Y-43888950D01*
X136236058Y-43892637D01*
X136894914Y-44551493D01*
X136906797Y-44557547D01*
X136911828Y-44556751D01*
X137572202Y-43896377D01*
X137578256Y-43884494D01*
X137577823Y-43881759D01*
X137575475Y-43878827D01*
X137506744Y-43821968D01*
X137498761Y-43816584D01*
X137386544Y-43755908D01*
X137344349Y-43711599D01*
X137336257Y-43650951D01*
X137365359Y-43597130D01*
X137420538Y-43570693D01*
X137433642Y-43569823D01*
X138091371Y-43569921D01*
X138917491Y-43570044D01*
X138975679Y-43588960D01*
X139011635Y-43638465D01*
X139011626Y-43699651D01*
X138975655Y-43749145D01*
X138963343Y-43756777D01*
X138861124Y-43810216D01*
X138857348Y-43813252D01*
X138857345Y-43813254D01*
X138727700Y-43917492D01*
X138698660Y-43940841D01*
X138695551Y-43944546D01*
X138695548Y-43944549D01*
X138599246Y-44059317D01*
X138564661Y-44100534D01*
X138464232Y-44283214D01*
X138462769Y-44287827D01*
X138462767Y-44287831D01*
X138448885Y-44331593D01*
X138401198Y-44481921D01*
X138400658Y-44486733D01*
X138400658Y-44486734D01*
X138392805Y-44556751D01*
X138377961Y-44689086D01*
X138379445Y-44706759D01*
X138394993Y-44891911D01*
X138395405Y-44896820D01*
X138396738Y-44901468D01*
X138396738Y-44901469D01*
X138406563Y-44935731D01*
X138452866Y-45097210D01*
X138455081Y-45101520D01*
X138485178Y-45160083D01*
X138548155Y-45282622D01*
X138677642Y-45445994D01*
X138681322Y-45449126D01*
X138681324Y-45449128D01*
X138718187Y-45480501D01*
X138836396Y-45581105D01*
X139018370Y-45682806D01*
X139098801Y-45708940D01*
X139212021Y-45745728D01*
X139212023Y-45745728D01*
X139216632Y-45747226D01*
X139221438Y-45747799D01*
X139221442Y-45747800D01*
X139325517Y-45760210D01*
X139423631Y-45771909D01*
X139428453Y-45771538D01*
X139428456Y-45771538D01*
X139497023Y-45766262D01*
X139631481Y-45755916D01*
X139832267Y-45699855D01*
X139836580Y-45697676D01*
X139836586Y-45697674D01*
X140014019Y-45608046D01*
X140014021Y-45608044D01*
X140018340Y-45605863D01*
X140182612Y-45477519D01*
X140318828Y-45319712D01*
X140337898Y-45286144D01*
X140419408Y-45142659D01*
X140419409Y-45142656D01*
X140421797Y-45138453D01*
X140423392Y-45133660D01*
X140486072Y-44945236D01*
X140486072Y-44945234D01*
X140487599Y-44940645D01*
X140493136Y-44896820D01*
X140498993Y-44850453D01*
X140513727Y-44733824D01*
X140514143Y-44704000D01*
X140493800Y-44496530D01*
X140433547Y-44296962D01*
X140359329Y-44157378D01*
X140337952Y-44117173D01*
X140337950Y-44117169D01*
X140335679Y-44112899D01*
X140329292Y-44105067D01*
X140206984Y-43955103D01*
X140206983Y-43955102D01*
X140203923Y-43951350D01*
X140112106Y-43875392D01*
X140047025Y-43821552D01*
X140047023Y-43821551D01*
X140043298Y-43818469D01*
X140039043Y-43816168D01*
X140039038Y-43816165D01*
X139928293Y-43756286D01*
X139886098Y-43711978D01*
X139878005Y-43651330D01*
X139907106Y-43597508D01*
X139962285Y-43571071D01*
X139975394Y-43570201D01*
X141456770Y-43570421D01*
X141514958Y-43589337D01*
X141550914Y-43638842D01*
X141550905Y-43700028D01*
X141514934Y-43749522D01*
X141502623Y-43757154D01*
X141401124Y-43810216D01*
X141397348Y-43813252D01*
X141397345Y-43813254D01*
X141267700Y-43917492D01*
X141238660Y-43940841D01*
X141235551Y-43944546D01*
X141235548Y-43944549D01*
X141139246Y-44059317D01*
X141104661Y-44100534D01*
X141004232Y-44283214D01*
X141002769Y-44287827D01*
X141002767Y-44287831D01*
X140988885Y-44331593D01*
X140941198Y-44481921D01*
X140940658Y-44486733D01*
X140940658Y-44486734D01*
X140932805Y-44556751D01*
X140917961Y-44689086D01*
X140919445Y-44706759D01*
X140934993Y-44891911D01*
X140935405Y-44896820D01*
X140936738Y-44901468D01*
X140936738Y-44901469D01*
X140946563Y-44935731D01*
X140992866Y-45097210D01*
X140995081Y-45101520D01*
X141025178Y-45160083D01*
X141088155Y-45282622D01*
X141217642Y-45445994D01*
X141221322Y-45449126D01*
X141221324Y-45449128D01*
X141258187Y-45480501D01*
X141376396Y-45581105D01*
X141558370Y-45682806D01*
X141638801Y-45708940D01*
X141752021Y-45745728D01*
X141752023Y-45745728D01*
X141756632Y-45747226D01*
X141761438Y-45747799D01*
X141761442Y-45747800D01*
X141865517Y-45760210D01*
X141963631Y-45771909D01*
X141968453Y-45771538D01*
X141968456Y-45771538D01*
X142037023Y-45766262D01*
X142171481Y-45755916D01*
X142372267Y-45699855D01*
X142376580Y-45697676D01*
X142376586Y-45697674D01*
X142554019Y-45608046D01*
X142554021Y-45608044D01*
X142558340Y-45605863D01*
X142722612Y-45477519D01*
X142858828Y-45319712D01*
X142877898Y-45286144D01*
X142959408Y-45142659D01*
X142959409Y-45142656D01*
X142961797Y-45138453D01*
X142963392Y-45133660D01*
X143026072Y-44945236D01*
X143026072Y-44945234D01*
X143027599Y-44940645D01*
X143033136Y-44896820D01*
X143038993Y-44850453D01*
X143053727Y-44733824D01*
X143054143Y-44704000D01*
X143033800Y-44496530D01*
X142973547Y-44296962D01*
X142899329Y-44157378D01*
X142877952Y-44117173D01*
X142877950Y-44117169D01*
X142875679Y-44112899D01*
X142872620Y-44109148D01*
X142872616Y-44109142D01*
X142831979Y-44059317D01*
X142809852Y-44002273D01*
X142825482Y-43943117D01*
X142872897Y-43904446D01*
X142933987Y-43901030D01*
X142968026Y-43917492D01*
X143013698Y-43951681D01*
X143024374Y-43960931D01*
X143173569Y-44110126D01*
X143182819Y-44120802D01*
X143309255Y-44289702D01*
X143316891Y-44301584D01*
X143418005Y-44486760D01*
X143423873Y-44499609D01*
X143497604Y-44697289D01*
X143501584Y-44710842D01*
X143546433Y-44917009D01*
X143548443Y-44930990D01*
X143561702Y-45116373D01*
X143560946Y-45126128D01*
X143561374Y-45126129D01*
X143561355Y-45137279D01*
X143558857Y-45148142D01*
X143561317Y-45159014D01*
X143561317Y-45159015D01*
X143561559Y-45160083D01*
X143564000Y-45181932D01*
X143564000Y-59084540D01*
X143561482Y-59106727D01*
X143558857Y-59118142D01*
X143561318Y-59129017D01*
X143561298Y-59140163D01*
X143560985Y-59140162D01*
X143561739Y-59150112D01*
X143558618Y-59193753D01*
X143547797Y-59345046D01*
X143545787Y-59359027D01*
X143499012Y-59574048D01*
X143495032Y-59587601D01*
X143418135Y-59793770D01*
X143412267Y-59806619D01*
X143306813Y-59999744D01*
X143299177Y-60011626D01*
X143167306Y-60187785D01*
X143158056Y-60198461D01*
X143002461Y-60354056D01*
X142991785Y-60363306D01*
X142815626Y-60495177D01*
X142803744Y-60502813D01*
X142610619Y-60608267D01*
X142597770Y-60614135D01*
X142391601Y-60691032D01*
X142378048Y-60695012D01*
X142163027Y-60741787D01*
X142149046Y-60743797D01*
X141997719Y-60754620D01*
X141954627Y-60757702D01*
X141944872Y-60756946D01*
X141944871Y-60757374D01*
X141933721Y-60757355D01*
X141922858Y-60754857D01*
X141911986Y-60757317D01*
X141911985Y-60757317D01*
X141910917Y-60757559D01*
X141889068Y-60760000D01*
X134399960Y-60760000D01*
X134377773Y-60757482D01*
X134366358Y-60754857D01*
X134355483Y-60757318D01*
X134344337Y-60757298D01*
X134344338Y-60756985D01*
X134334388Y-60757739D01*
X134204909Y-60748478D01*
X134148490Y-60744443D01*
X134134509Y-60742433D01*
X133928342Y-60697584D01*
X133914789Y-60693604D01*
X133717109Y-60619873D01*
X133704260Y-60614005D01*
X133519084Y-60512891D01*
X133507202Y-60505255D01*
X133338302Y-60378819D01*
X133327626Y-60369569D01*
X133178431Y-60220374D01*
X133169181Y-60209698D01*
X133042745Y-60040798D01*
X133035109Y-60028916D01*
X132933995Y-59843740D01*
X132928127Y-59830891D01*
X132854396Y-59633211D01*
X132850416Y-59619658D01*
X132805567Y-59413491D01*
X132803557Y-59399510D01*
X132790316Y-59214382D01*
X132791928Y-59193833D01*
X132791235Y-59193753D01*
X132791877Y-59188175D01*
X132793142Y-59182716D01*
X132793143Y-59182000D01*
X132790479Y-59170321D01*
X132788000Y-59148304D01*
X132788000Y-54211958D01*
X132806907Y-54153767D01*
X132856407Y-54117803D01*
X132917593Y-54117803D01*
X132924886Y-54120494D01*
X132990384Y-54147624D01*
X133066238Y-54179044D01*
X133223000Y-54199682D01*
X133334284Y-54185031D01*
X133394443Y-54196181D01*
X133417209Y-54213180D01*
X133930193Y-54726165D01*
X133932890Y-54729290D01*
X133935084Y-54733778D01*
X133941785Y-54739994D01*
X133971331Y-54767401D01*
X133974008Y-54769979D01*
X133987785Y-54783757D01*
X133991500Y-54786305D01*
X133995412Y-54789740D01*
X134008123Y-54801531D01*
X134017155Y-54809910D01*
X134025643Y-54813296D01*
X134025646Y-54813298D01*
X134027847Y-54814176D01*
X134047163Y-54824490D01*
X134049118Y-54825831D01*
X134049120Y-54825832D01*
X134056655Y-54831001D01*
X134065543Y-54833110D01*
X134065545Y-54833111D01*
X134082567Y-54837150D01*
X134096393Y-54841523D01*
X134114641Y-54848803D01*
X134114643Y-54848803D01*
X134121131Y-54851392D01*
X134127424Y-54852009D01*
X134133593Y-54852009D01*
X134156452Y-54854684D01*
X134156682Y-54854739D01*
X134156684Y-54854739D01*
X134165575Y-54856849D01*
X134194497Y-54852913D01*
X134207846Y-54852009D01*
X140644738Y-54852009D01*
X140648863Y-54852312D01*
X140653588Y-54853934D01*
X140703007Y-54852079D01*
X140706720Y-54852009D01*
X140726194Y-54852009D01*
X140730624Y-54851184D01*
X140735817Y-54850848D01*
X140751848Y-54850246D01*
X140756321Y-54850078D01*
X140765454Y-54849735D01*
X140773848Y-54846129D01*
X140773851Y-54846128D01*
X140776029Y-54845192D01*
X140796980Y-54838826D01*
X140808299Y-54836718D01*
X140830975Y-54822741D01*
X140843842Y-54816057D01*
X140861888Y-54808304D01*
X140861889Y-54808303D01*
X140868309Y-54805545D01*
X140873195Y-54801531D01*
X140877559Y-54797167D01*
X140895614Y-54782896D01*
X140903594Y-54777977D01*
X140910671Y-54768671D01*
X140921260Y-54754745D01*
X140930061Y-54744665D01*
X141282662Y-54392065D01*
X141285790Y-54389365D01*
X141290278Y-54387171D01*
X141323890Y-54350937D01*
X141326466Y-54348261D01*
X141340257Y-54334470D01*
X141342802Y-54330759D01*
X141346243Y-54326840D01*
X141360194Y-54311801D01*
X141360194Y-54311800D01*
X141366410Y-54305100D01*
X141369796Y-54296612D01*
X141369798Y-54296609D01*
X141370676Y-54294408D01*
X141380990Y-54275092D01*
X141382331Y-54273137D01*
X141382332Y-54273135D01*
X141387501Y-54265600D01*
X141393650Y-54239687D01*
X141398023Y-54225862D01*
X141405303Y-54207614D01*
X141405303Y-54207612D01*
X141407892Y-54201124D01*
X141408509Y-54194831D01*
X141408509Y-54188662D01*
X141411184Y-54165803D01*
X141411239Y-54165573D01*
X141411239Y-54165571D01*
X141413349Y-54156680D01*
X141409413Y-54127758D01*
X141408509Y-54114409D01*
X141408509Y-52071017D01*
X141408812Y-52066892D01*
X141410434Y-52062167D01*
X141408579Y-52012747D01*
X141408509Y-52009034D01*
X141408509Y-51989561D01*
X141407684Y-51985131D01*
X141407347Y-51979926D01*
X141406578Y-51959435D01*
X141406235Y-51950300D01*
X141402627Y-51941902D01*
X141401690Y-51939721D01*
X141395326Y-51918772D01*
X141394893Y-51916445D01*
X141394891Y-51916440D01*
X141393218Y-51907456D01*
X141379241Y-51884780D01*
X141372557Y-51871913D01*
X141364804Y-51853867D01*
X141364803Y-51853866D01*
X141362045Y-51847446D01*
X141358031Y-51842560D01*
X141353667Y-51838196D01*
X141339396Y-51820141D01*
X141339273Y-51819942D01*
X141334477Y-51812161D01*
X141311240Y-51794491D01*
X141301170Y-51785699D01*
X140600996Y-51085525D01*
X140573219Y-51031008D01*
X140572000Y-51015521D01*
X140572000Y-47996014D01*
X140572303Y-47991885D01*
X140573926Y-47987158D01*
X140572070Y-47937723D01*
X140572000Y-47934009D01*
X140572000Y-47914552D01*
X140571175Y-47910122D01*
X140570839Y-47904936D01*
X140570069Y-47884425D01*
X140570069Y-47884424D01*
X140569726Y-47875292D01*
X140566120Y-47866898D01*
X140566119Y-47866895D01*
X140565183Y-47864717D01*
X140558817Y-47843766D01*
X140556709Y-47832447D01*
X140542730Y-47809769D01*
X140536050Y-47796909D01*
X140528292Y-47778852D01*
X140528291Y-47778851D01*
X140525536Y-47772438D01*
X140521523Y-47767551D01*
X140517157Y-47763185D01*
X140502885Y-47745129D01*
X140502764Y-47744932D01*
X140502763Y-47744931D01*
X140497968Y-47737152D01*
X140474744Y-47719492D01*
X140464665Y-47710693D01*
X138870820Y-46116849D01*
X138868120Y-46113720D01*
X138865925Y-46109231D01*
X138829678Y-46075607D01*
X138827002Y-46073031D01*
X138813223Y-46059252D01*
X138809513Y-46056707D01*
X138805600Y-46053271D01*
X138790555Y-46039315D01*
X138783854Y-46033099D01*
X138773164Y-46028834D01*
X138753848Y-46018520D01*
X138751893Y-46017179D01*
X138751890Y-46017178D01*
X138744354Y-46012008D01*
X138718441Y-46005859D01*
X138704616Y-46001486D01*
X138686368Y-45994206D01*
X138686366Y-45994206D01*
X138679878Y-45991617D01*
X138673585Y-45991000D01*
X138667416Y-45991000D01*
X138644557Y-45988325D01*
X138644327Y-45988270D01*
X138644325Y-45988270D01*
X138635434Y-45986160D01*
X138606513Y-45990096D01*
X138593163Y-45991000D01*
X138551152Y-45991000D01*
X138492961Y-45972093D01*
X138472610Y-45952268D01*
X138404280Y-45863218D01*
X138278839Y-45766964D01*
X138132760Y-45706456D01*
X137975998Y-45685818D01*
X137819236Y-45706456D01*
X137673157Y-45766964D01*
X137547716Y-45863218D01*
X137451462Y-45988659D01*
X137390954Y-46134738D01*
X137370316Y-46291500D01*
X137390954Y-46448262D01*
X137451462Y-46594341D01*
X137547716Y-46719782D01*
X137673157Y-46816036D01*
X137819236Y-46876544D01*
X137975998Y-46897182D01*
X138132760Y-46876544D01*
X138278839Y-46816036D01*
X138404280Y-46719782D01*
X138430874Y-46685124D01*
X138481296Y-46650470D01*
X138542460Y-46652071D01*
X138579418Y-46675389D01*
X139942004Y-48037975D01*
X139969781Y-48092492D01*
X139971000Y-48107979D01*
X139971000Y-51127492D01*
X139970697Y-51131617D01*
X139969075Y-51136342D01*
X139969418Y-51145476D01*
X139970930Y-51185761D01*
X139971000Y-51189474D01*
X139971000Y-51208948D01*
X139971825Y-51213378D01*
X139972161Y-51218571D01*
X139973274Y-51248208D01*
X139976880Y-51256602D01*
X139976881Y-51256605D01*
X139977817Y-51258783D01*
X139984183Y-51279734D01*
X139986291Y-51291053D01*
X139991088Y-51298835D01*
X140000268Y-51313728D01*
X140006953Y-51326598D01*
X140011894Y-51338099D01*
X140017492Y-51399028D01*
X139986207Y-51451610D01*
X139933855Y-51475330D01*
X139860738Y-51484956D01*
X139714659Y-51545464D01*
X139589218Y-51641718D01*
X139520888Y-51730768D01*
X139470463Y-51765423D01*
X139442346Y-51769500D01*
X135255987Y-51769500D01*
X135251862Y-51769197D01*
X135247137Y-51767575D01*
X135197717Y-51769430D01*
X135194004Y-51769500D01*
X135187741Y-51769500D01*
X135129550Y-51750593D01*
X135093586Y-51701093D01*
X135089588Y-51683422D01*
X135078891Y-51602174D01*
X135078044Y-51595738D01*
X135017536Y-51449659D01*
X134921282Y-51324218D01*
X134795841Y-51227964D01*
X134649762Y-51167456D01*
X134493000Y-51146818D01*
X134336238Y-51167456D01*
X134190159Y-51227964D01*
X134064718Y-51324218D01*
X133968464Y-51449659D01*
X133907956Y-51595738D01*
X133887318Y-51752500D01*
X133900664Y-51853867D01*
X133901969Y-51863783D01*
X133890819Y-51923943D01*
X133873820Y-51946709D01*
X133638288Y-52182241D01*
X133635159Y-52184941D01*
X133630670Y-52187136D01*
X133624452Y-52193839D01*
X133597046Y-52223383D01*
X133594470Y-52226059D01*
X133580691Y-52239838D01*
X133578146Y-52243548D01*
X133574710Y-52247461D01*
X133554538Y-52269207D01*
X133551151Y-52277695D01*
X133551151Y-52277696D01*
X133550273Y-52279897D01*
X133539959Y-52299213D01*
X133538618Y-52301168D01*
X133538617Y-52301171D01*
X133533447Y-52308707D01*
X133531337Y-52317599D01*
X133527298Y-52334619D01*
X133522925Y-52348445D01*
X133515645Y-52366693D01*
X133513056Y-52373183D01*
X133512439Y-52379476D01*
X133512439Y-52385645D01*
X133509764Y-52408504D01*
X133507599Y-52417627D01*
X133511535Y-52446548D01*
X133512439Y-52459898D01*
X133512439Y-52916364D01*
X133493532Y-52974555D01*
X133444032Y-53010519D01*
X133387817Y-53011991D01*
X133385756Y-53011439D01*
X133379762Y-53008956D01*
X133373330Y-53008109D01*
X133373329Y-53008109D01*
X133229434Y-52989165D01*
X133223000Y-52988318D01*
X133066238Y-53008956D01*
X133060241Y-53011440D01*
X132924886Y-53067506D01*
X132863889Y-53072307D01*
X132811720Y-53040337D01*
X132788305Y-52983810D01*
X132788000Y-52976042D01*
X132788001Y-45240566D01*
X132789789Y-45221837D01*
X132790917Y-45215984D01*
X132790917Y-45215983D01*
X132793026Y-45205036D01*
X132790179Y-45194257D01*
X132789800Y-45183113D01*
X132790155Y-45183101D01*
X132789056Y-45173196D01*
X132796202Y-44981839D01*
X132797793Y-44967481D01*
X132837166Y-44755168D01*
X132840829Y-44741195D01*
X132851206Y-44710842D01*
X132910683Y-44536867D01*
X132916340Y-44523577D01*
X132935296Y-44486760D01*
X133015184Y-44331593D01*
X133022716Y-44319266D01*
X133148446Y-44143710D01*
X133157691Y-44132611D01*
X133172317Y-44117453D01*
X133307638Y-43977213D01*
X133318389Y-43967587D01*
X133381777Y-43918675D01*
X133439397Y-43898095D01*
X133498110Y-43915315D01*
X133535488Y-43963755D01*
X133537255Y-44024915D01*
X133518094Y-44060690D01*
X133484661Y-44100534D01*
X133384232Y-44283214D01*
X133382769Y-44287827D01*
X133382767Y-44287831D01*
X133368885Y-44331593D01*
X133321198Y-44481921D01*
X133320658Y-44486733D01*
X133320658Y-44486734D01*
X133312805Y-44556751D01*
X133297961Y-44689086D01*
X133299445Y-44706759D01*
X133314993Y-44891911D01*
X133315405Y-44896820D01*
X133316738Y-44901468D01*
X133316738Y-44901469D01*
X133326563Y-44935731D01*
X133372866Y-45097210D01*
X133375081Y-45101520D01*
X133405178Y-45160083D01*
X133468155Y-45282622D01*
X133597642Y-45445994D01*
X133601322Y-45449126D01*
X133601324Y-45449128D01*
X133638187Y-45480501D01*
X133756396Y-45581105D01*
X133938370Y-45682806D01*
X134018801Y-45708940D01*
X134132021Y-45745728D01*
X134132023Y-45745728D01*
X134136632Y-45747226D01*
X134141438Y-45747799D01*
X134141442Y-45747800D01*
X134245517Y-45760210D01*
X134343631Y-45771909D01*
X134348453Y-45771538D01*
X134348456Y-45771538D01*
X134417023Y-45766262D01*
X134551481Y-45755916D01*
X134752267Y-45699855D01*
X134756580Y-45697676D01*
X134756586Y-45697674D01*
X134934019Y-45608046D01*
X134934021Y-45608044D01*
X134938340Y-45605863D01*
X135043657Y-45523580D01*
X136233670Y-45523580D01*
X136234160Y-45526679D01*
X136236096Y-45529131D01*
X136292995Y-45577554D01*
X136300912Y-45583056D01*
X136474347Y-45679985D01*
X136483169Y-45683840D01*
X136672135Y-45745239D01*
X136681549Y-45747308D01*
X136878840Y-45770834D01*
X136888466Y-45771036D01*
X137086566Y-45755793D01*
X137096057Y-45754119D01*
X137287424Y-45700688D01*
X137296404Y-45697206D01*
X137473750Y-45607622D01*
X137481888Y-45602457D01*
X137571226Y-45532658D01*
X137578686Y-45521600D01*
X137578615Y-45519572D01*
X137575919Y-45515340D01*
X136917086Y-44856507D01*
X136905203Y-44850453D01*
X136900172Y-44851249D01*
X136239724Y-45511697D01*
X136233670Y-45523580D01*
X135043657Y-45523580D01*
X135102612Y-45477519D01*
X135238828Y-45319712D01*
X135257898Y-45286144D01*
X135339408Y-45142659D01*
X135339409Y-45142656D01*
X135341797Y-45138453D01*
X135343392Y-45133660D01*
X135406072Y-44945236D01*
X135406072Y-44945234D01*
X135407599Y-44940645D01*
X135413136Y-44896820D01*
X135418993Y-44850453D01*
X135433727Y-44733824D01*
X135434143Y-44704000D01*
X135433154Y-44693913D01*
X135838868Y-44693913D01*
X135855494Y-44891911D01*
X135857232Y-44901379D01*
X135911997Y-45092367D01*
X135915548Y-45101335D01*
X136006364Y-45278045D01*
X136011584Y-45286144D01*
X136077384Y-45369164D01*
X136088496Y-45376547D01*
X136090706Y-45376454D01*
X136094668Y-45373911D01*
X136753493Y-44715086D01*
X136758735Y-44704797D01*
X137052453Y-44704797D01*
X137053249Y-44709828D01*
X137713788Y-45370367D01*
X137725671Y-45376421D01*
X137728953Y-45375902D01*
X137731159Y-45374172D01*
X137775253Y-45323088D01*
X137780807Y-45315216D01*
X137878951Y-45142453D01*
X137882865Y-45133660D01*
X137945582Y-44945125D01*
X137947716Y-44935731D01*
X137972877Y-44736562D01*
X137973264Y-44731036D01*
X137973602Y-44706759D01*
X137973372Y-44701261D01*
X137953780Y-44501437D01*
X137951911Y-44492000D01*
X137894481Y-44301785D01*
X137890811Y-44292881D01*
X137797535Y-44117453D01*
X137792199Y-44109422D01*
X137734638Y-44038846D01*
X137723426Y-44031620D01*
X137720845Y-44031764D01*
X137717432Y-44033989D01*
X137058507Y-44692914D01*
X137052453Y-44704797D01*
X136758735Y-44704797D01*
X136759547Y-44703203D01*
X136758751Y-44698172D01*
X136098359Y-44037780D01*
X136086476Y-44031726D01*
X136083559Y-44032188D01*
X136080866Y-44034330D01*
X136028192Y-44097103D01*
X136022739Y-44105067D01*
X135927024Y-44279171D01*
X135923230Y-44288023D01*
X135863156Y-44477404D01*
X135861150Y-44486842D01*
X135839002Y-44684285D01*
X135838868Y-44693913D01*
X135433154Y-44693913D01*
X135413800Y-44496530D01*
X135353547Y-44296962D01*
X135279329Y-44157378D01*
X135257952Y-44117173D01*
X135257950Y-44117169D01*
X135255679Y-44112899D01*
X135249292Y-44105067D01*
X135126984Y-43955103D01*
X135126983Y-43955102D01*
X135123923Y-43951350D01*
X135032106Y-43875392D01*
X134967025Y-43821552D01*
X134967023Y-43821551D01*
X134963298Y-43818469D01*
X134875817Y-43771168D01*
X134846897Y-43755531D01*
X134804703Y-43711222D01*
X134796610Y-43650574D01*
X134825712Y-43596753D01*
X134880891Y-43570316D01*
X134893998Y-43569446D01*
X135244961Y-43569498D01*
G37*
%TD.AperFunction*%
%TD*%
M02*
